# 3ds Max Wavefront OBJ Exporter v0.97b - (c)2007 guruware
# 创建的文件:17.05.2022 11:40:44

mtllib PDG-F1-F10-B.mtl

#
# object PDG_F1_F10_gui_B
#

v  -22979.2988 37663.3086 -49597.3516
v  -22979.2988 37663.3086 -48959.4766
v  -22979.2988 37378.0156 -48959.4766
v  -22979.2988 37378.0156 -49597.3516
v  -23305.7949 37378.0156 -48959.4766
v  -23305.7949 37663.3086 -48959.4766
v  -23305.7949 37663.3086 -49597.3516
v  -23305.7949 37378.0156 -49597.3516
v  -22979.2988 38337.1719 -48959.4766
v  -22979.2988 38337.1719 -49597.3516
v  -23305.7969 38337.1719 -49597.3516
v  -23305.7949 38337.1719 -48959.4766
v  -23009.0879 37396.4766 -48804.8086
v  -23009.0879 38130.5039 -48804.8086
v  -23009.0879 38130.5039 -48138.7930
v  -23009.0859 37396.4766 -48138.7930
v  -23305.7949 37396.4766 -48804.8086
v  -23305.7949 37396.4766 -48138.7930
v  -23305.7949 38130.5000 -48138.7930
v  -23305.7949 38130.5000 -48804.8086
v  -22085.7988 37259.9219 -49762.1719
v  -22085.7988 38542.9375 -49762.1719
v  -22769.6777 38542.9375 -49762.1719
v  -22769.6777 37259.9219 -49762.1719
v  -22085.7988 37259.9219 -50108.5430
v  -22769.6777 37259.9219 -50108.5430
v  -22769.6797 38542.9375 -50108.5430
v  -22085.7988 38542.9375 -50108.5430
v  -22979.2949 13196.6250 -49597.3516
v  -22979.2949 13196.6250 -48959.4766
v  -22979.2949 12911.3340 -48959.4766
v  -22979.2949 12911.3340 -49597.3516
v  -23305.7910 12911.3340 -48959.4766
v  -23305.7910 13196.6250 -48959.4766
v  -23305.7930 13196.6250 -49597.3516
v  -23305.7930 12911.3340 -49597.3516
v  -22979.2949 13870.4902 -48959.4766
v  -22979.2969 13870.4902 -49597.3516
v  -23305.7930 13870.4902 -49597.3516
v  -23305.7930 13870.4902 -48959.4766
v  -23009.0840 12929.7949 -48804.8086
v  -23009.0840 13663.8203 -48804.8086
v  -23009.0840 13663.8203 -48138.7930
v  -23009.0840 12929.7949 -48138.7930
v  -23305.7910 12929.7949 -48804.8086
v  -23305.7910 12929.7949 -48138.7930
v  -23305.7910 13663.8203 -48138.7930
v  -23305.7930 13663.8203 -48804.8086
v  -22085.7949 12793.2422 -49762.1719
v  -22085.7949 14076.2539 -49762.1719
v  -22769.6758 14076.2539 -49762.1719
v  -22769.6738 12793.2422 -49762.1719
v  -22085.7949 12793.2422 -50108.5430
v  -22769.6738 12793.2422 -50108.5430
v  -22769.6758 14076.2539 -50108.5430
v  -22085.7949 14076.2539 -50108.5430
v  -22979.2988 24929.1836 -49597.3516
v  -22979.2988 24929.1836 -48959.4766
v  -22979.2988 24643.8906 -48959.4766
v  -22979.2988 24643.8906 -49597.3516
v  -23305.7949 24643.8906 -48959.4766
v  -23305.7949 24929.1836 -48959.4766
v  -23305.7949 24929.1836 -49597.3516
v  -23305.7949 24643.8906 -49597.3516
v  -22979.2988 25603.0469 -48959.4766
v  -22979.2988 25603.0469 -49597.3516
v  -23305.7969 25603.0469 -49597.3516
v  -23305.7969 25603.0469 -48959.4766
v  -23009.0879 24662.3516 -48804.8086
v  -23009.0879 25396.3789 -48804.8086
v  -23009.0879 25396.3789 -48138.7930
v  -23009.0859 24662.3516 -48138.7930
v  -23305.7949 24662.3516 -48804.8086
v  -23305.7949 24662.3516 -48138.7930
v  -23305.7949 25396.3789 -48138.7930
v  -23305.7969 25396.3789 -48804.8086
v  -22085.7988 24525.8008 -49762.1719
v  -22085.7988 25808.8125 -49762.1719
v  -22769.6777 25808.8125 -49762.1719
v  -22769.6777 24525.7988 -49762.1719
v  -22085.7988 24525.8008 -50108.5430
v  -22769.6777 24525.7988 -50108.5430
v  -22769.6797 25808.8125 -50108.5430
v  -22085.7988 25808.8125 -50108.5430
v  -22979.2988 28819.2988 -49597.3516
v  -22979.2969 28819.2988 -48959.4766
v  -22979.2969 28534.0059 -48959.4766
v  -22979.2969 28534.0059 -49597.3516
v  -23305.7949 28534.0059 -48959.4766
v  -23305.7949 28819.2988 -48959.4766
v  -23305.7949 28819.2988 -49597.3516
v  -23305.7949 28534.0059 -49597.3516
v  -22979.2988 29493.1641 -48959.4766
v  -22979.2988 29493.1641 -49597.3516
v  -23305.7949 29493.1641 -49597.3516
v  -23305.7949 29493.1641 -48959.4766
v  -23009.0859 28552.4688 -48804.8086
v  -23009.0859 29286.4922 -48804.8086
v  -23009.0859 29286.4922 -48138.7930
v  -23009.0859 28552.4688 -48138.7930
v  -23305.7949 28552.4688 -48804.8086
v  -23305.7930 28552.4688 -48138.7930
v  -23305.7949 29286.4922 -48138.7930
v  -23305.7949 29286.4922 -48804.8086
v  -22085.7969 28415.9141 -49762.1719
v  -22085.7988 29698.9277 -49762.1719
v  -22769.6777 29698.9277 -49762.1719
v  -22769.6758 28415.9141 -49762.1719
v  -22085.7969 28415.9141 -50108.5430
v  -22769.6777 28415.9141 -50108.5430
v  -22769.6777 29698.9277 -50108.5430
v  -22085.7988 29698.9277 -50108.5430
v  -22979.2969 9311.0547 -49597.3516
v  -22979.2969 9311.0547 -48959.4766
v  -22979.2949 9025.7637 -48959.4766
v  -22979.2969 9025.7637 -49597.3516
v  -23305.7930 9025.7637 -48959.4766
v  -23305.7930 9311.0547 -48959.4766
v  -23305.7930 9311.0547 -49597.3516
v  -23305.7930 9025.7637 -49597.3516
v  -22979.2969 9984.9199 -48959.4766
v  -22979.2969 9984.9199 -49597.3516
v  -23305.7930 9984.9199 -49597.3516
v  -23305.7930 9984.9199 -48959.4766
v  -23009.0840 9044.2246 -48804.8086
v  -23009.0859 9778.2520 -48804.8086
v  -23009.0840 9778.2520 -48138.7930
v  -23009.0840 9044.2246 -48138.7930
v  -23305.7930 9044.2246 -48804.8086
v  -23305.7930 9044.2246 -48138.7930
v  -23305.7930 9778.2520 -48138.7930
v  -23305.7930 9778.2520 -48804.8086
v  -22085.7949 8907.6719 -49762.1719
v  -22085.7969 10190.6836 -49762.1719
v  -22769.6758 10190.6836 -49762.1719
v  -22769.6758 8907.6719 -49762.1719
v  -22085.7969 8907.6719 -50108.5430
v  -22769.6758 8907.6719 -50108.5430
v  -22769.6758 10190.6836 -50108.5430
v  -22085.7969 10190.6836 -50108.5430
v  -22979.2949 5417.8438 -49597.3516
v  -22979.2949 5417.8438 -48959.4766
v  -22979.2949 5132.5508 -48959.4766
v  -22979.2949 5132.5508 -49597.3516
v  -23305.7910 5132.5508 -48959.4766
v  -23305.7910 5417.8438 -48959.4766
v  -23305.7930 5417.8438 -49597.3516
v  -23305.7910 5132.5508 -49597.3516
v  -22979.2949 6091.7090 -48959.4766
v  -22979.2969 6091.7090 -49597.3516
v  -23305.7930 6091.7090 -49597.3516
v  -23305.7930 6091.7090 -48959.4766
v  -23009.0840 5151.0117 -48804.8086
v  -23009.0840 5885.0391 -48804.8086
v  -23009.0840 5885.0391 -48138.7930
v  -23009.0840 5151.0117 -48138.7930
v  -23305.7910 5151.0117 -48804.8086
v  -23305.7910 5151.0117 -48138.7930
v  -23305.7910 5885.0391 -48138.7930
v  -23305.7930 5885.0391 -48804.8086
v  -22085.7949 5014.4609 -49762.1719
v  -22085.7949 6297.4727 -49762.1719
v  -22769.6758 6297.4727 -49762.1719
v  -22769.6738 5014.4609 -49762.1719
v  -22085.7949 5014.4609 -50108.5430
v  -22769.6738 5014.4609 -50108.5430
v  -22769.6758 6297.4727 -50108.5430
v  -22085.7949 6297.4727 -50108.5430
v  -22979.2969 926.5820 -49597.3516
v  -22979.2949 926.5820 -48959.4766
v  -22979.2949 641.2891 -48959.4766
v  -22979.2949 641.2891 -49597.3516
v  -23305.7930 641.2891 -48959.4766
v  -23305.7930 926.5820 -48959.4766
v  -23305.7930 926.5820 -49597.3516
v  -23305.7930 641.2891 -49597.3516
v  -22979.2969 1600.4492 -48959.4766
v  -22979.2969 1600.4492 -49597.3516
v  -23305.7930 1600.4492 -49597.3516
v  -23305.7930 1600.4492 -48959.4766
v  -23009.0840 659.7539 -48804.8086
v  -23009.0840 1393.7773 -48804.8086
v  -23009.0840 1393.7773 -48138.7930
v  -23009.0840 659.7539 -48138.7930
v  -23305.7930 659.7539 -48804.8086
v  -23305.7910 659.7539 -48138.7930
v  -23305.7930 1393.7773 -48138.7930
v  -23305.7930 1393.7773 -48804.8086
v  -22085.7949 523.1992 -49762.1719
v  -22085.7969 1806.2109 -49762.1719
v  -22769.6758 1806.2109 -49762.1719
v  -22769.6738 523.1992 -49762.1719
v  -22085.7949 523.1992 -50108.5430
v  -22769.6758 523.1992 -50108.5430
v  -22769.6758 1806.2109 -50108.5430
v  -22085.7969 1806.2109 -50108.5430
v  -22979.2969 17402.5410 -49597.3516
v  -22979.2969 17402.5410 -48959.4766
v  -22979.2969 17117.2480 -48959.4766
v  -22979.2969 17117.2480 -49597.3516
v  -23305.7930 17117.2480 -48959.4766
v  -23305.7930 17402.5410 -48959.4766
v  -23305.7930 17402.5410 -49597.3516
v  -23305.7930 17117.2480 -49597.3516
v  -22979.2969 18076.4063 -48959.4766
v  -22979.2969 18076.4063 -49597.3516
v  -23305.7949 18076.4063 -49597.3516
v  -23305.7930 18076.4063 -48959.4766
v  -23009.0859 17135.7129 -48804.8086
v  -23009.0859 17869.7363 -48804.8086
v  -23009.0859 17869.7363 -48138.7930
v  -23009.0840 17135.7129 -48138.7930
v  -23305.7930 17135.7129 -48804.8086
v  -23305.7930 17135.7129 -48138.7930
v  -23305.7930 17869.7363 -48138.7930
v  -23305.7930 17869.7363 -48804.8086
v  -22085.7969 16999.1563 -49762.1719
v  -22085.7969 18282.1699 -49762.1719
v  -22769.6758 18282.1699 -49762.1719
v  -22769.6758 16999.1563 -49762.1719
v  -22085.7969 16999.1563 -50108.5430
v  -22769.6758 16999.1563 -50108.5430
v  -22769.6758 18282.1699 -50108.5430
v  -22085.7969 18282.1699 -50108.5430
v  -22979.2988 21605.6563 -49597.3516
v  -22979.2969 21605.6563 -48959.4766
v  -22979.2969 21320.3633 -48959.4766
v  -22979.2988 21320.3633 -49597.3516
v  -23305.7949 21320.3633 -48959.4766
v  -23305.7949 21605.6563 -48959.4766
v  -23305.7949 21605.6563 -49597.3516
v  -23305.7949 21320.3633 -49597.3516
v  -22979.2988 22279.5195 -48959.4766
v  -22979.2988 22279.5195 -49597.3516
v  -23305.7949 22279.5195 -49597.3516
v  -23305.7949 22279.5195 -48959.4766
v  -23009.0859 21338.8242 -48804.8086
v  -23009.0879 22072.8516 -48804.8086
v  -23009.0859 22072.8516 -48138.7930
v  -23009.0859 21338.8242 -48138.7930
v  -23305.7949 21338.8242 -48804.8086
v  -23305.7949 21338.8242 -48138.7930
v  -23305.7949 22072.8516 -48138.7930
v  -23305.7949 22072.8516 -48804.8086
v  -22085.7969 21202.2715 -49762.1719
v  -22085.7988 22485.2852 -49762.1719
v  -22769.6777 22485.2832 -49762.1719
v  -22769.6777 21202.2715 -49762.1719
v  -22085.7969 21202.2715 -50108.5430
v  -22769.6777 21202.2715 -50108.5430
v  -22769.6777 22485.2832 -50108.5430
v  -22085.7988 22485.2852 -50108.5430
v  -22979.2988 33233.0742 -49597.3516
v  -22979.2988 33233.0742 -48959.4766
v  -22979.2988 32947.7813 -48959.4766
v  -22979.2988 32947.7813 -49597.3516
v  -23305.7949 32947.7813 -48959.4766
v  -23305.7969 33233.0742 -48959.4766
v  -23305.7969 33233.0742 -49597.3516
v  -23305.7969 32947.7813 -49597.3516
v  -22979.2988 33906.9414 -48959.4766
v  -22979.3008 33906.9414 -49597.3516
v  -23305.7969 33906.9414 -49597.3516
v  -23305.7969 33906.9414 -48959.4766
v  -23009.0879 32966.2422 -48804.8086
v  -23009.0879 33700.2695 -48804.8086
v  -23009.0879 33700.2695 -48138.7930
v  -23009.0879 32966.2422 -48138.7930
v  -23305.7949 32966.2422 -48804.8086
v  -23305.7949 32966.2422 -48138.7930
v  -23305.7969 33700.2695 -48138.7930
v  -23305.7969 33700.2695 -48804.8086
v  -22085.7988 32829.6914 -49762.1719
v  -22085.7988 34112.7031 -49762.1719
v  -22769.6797 34112.7031 -49762.1719
v  -22769.6777 32829.6914 -49762.1719
v  -22085.7988 32829.6914 -50108.5430
v  -22769.6777 32829.6914 -50108.5430
v  -22769.6797 34112.7031 -50108.5430
v  -22085.8008 34112.7031 -50108.5430
# 280 vertices

vn 1.0000 0.0000 -0.0000
vn -1.0000 -0.0000 0.0000
vn 0.0000 -1.0000 -0.0000
vn 0.0000 0.0000 1.0000
vn -0.0000 1.0000 0.0000
vn -0.0000 0.0000 -1.0000
vn 0.0000 -1.0000 0.0000
vn -0.0000 1.0000 -0.0000
vn -0.0000 -0.0000 -1.0000
# 9 vertex normals

vt 1.0000 0.1607 0.0000
vt 0.0000 0.1607 0.0000
vt 0.0000 0.0219 0.0000
vt 1.0000 0.0219 0.0000
vt 0.5804 0.0943 0.0000
vt 0.5804 0.1234 0.0000
vt 0.3711 0.1234 0.0000
vt 0.3711 0.0943 0.0000
vt 0.3711 0.0897 0.0000
vt 0.5804 0.0897 0.0000
vt 0.5804 0.2990 0.0000
vt 0.3711 0.2990 0.0000
vt 0.6478 0.2183 0.0000
vt 0.6478 0.1486 0.0000
vt 0.8708 0.1486 0.0000
vt 0.8708 0.2183 0.0000
vt 0.5181 0.0897 0.0000
vt 0.5181 0.2990 0.0000
vt 1.0000 1.0000 0.0000
vt 0.0000 1.0000 0.0000
vt 0.1211 0.2183 0.0000
vt 0.1211 0.1486 0.0000
vt 1.0000 0.0000 0.0000
vt 0.0000 0.0000 0.0000
vt 0.2556 0.0765 0.0000
vt 0.4956 0.0765 0.0000
vt 0.4956 0.3165 0.0000
vt 0.2556 0.3165 0.0000
vt 0.3929 0.0640 0.0000
vt 0.6395 0.0640 0.0000
vt 0.6395 0.3105 0.0000
vt 0.3929 0.3105 0.0000
vt 1.0618 0.0222 0.0000
vt 1.0618 0.9931 0.0000
vt -0.0618 0.9931 0.0000
vt -0.0618 0.0222 0.0000
vt 0.2677 0.1452 0.0000
vt 0.6591 0.1452 0.0000
vt 0.6591 0.4834 0.0000
vt 0.2677 0.4834 0.0000
vt 0.2677 0.1375 0.0000
vt 0.6591 0.1375 0.0000
vt 0.6591 0.4858 0.0000
vt 0.2677 0.4858 0.0000
vt 0.2970 0.1375 0.0000
vt 0.6352 0.1375 0.0000
vt 0.6352 0.4858 0.0000
vt 0.2970 0.4858 0.0000
vt 0.2917 0.1375 0.0000
vt 0.6298 0.1375 0.0000
vt 0.6298 0.4858 0.0000
vt 0.2917 0.4858 0.0000
# 52 texture coords

g PDG_F1_F10_gui_B
usemtl peidiangui1
s off
f 1/1/1 2/2/1 3/3/1 4/4/1 
f 5/5/2 6/6/2 7/7/2 8/8/2 
f 4/9/3 3/10/3 5/11/3 8/12/3 
f 2/13/4 6/14/4 5/15/4 3/16/4 
f 9/9/5 10/10/5 11/11/5 12/12/5 
f 1/17/6 7/18/6 11/12/6 10/9/6 
f 10/19/1 9/20/1 2/2/1 1/1/1 
f 12/11/2 11/12/2 7/7/2 6/6/2 
f 9/21/4 12/22/4 6/14/4 2/13/4 
f 4/10/6 8/11/6 7/18/6 1/17/6 
f 13/23/1 14/19/1 15/20/1 16/24/1 
f 17/25/2 18/26/2 19/27/2 20/28/2 
f 13/29/7 16/30/7 18/31/7 17/32/7 
f 16/29/4 15/30/4 19/31/4 18/32/4 
f 15/29/8 14/30/8 20/31/8 19/32/8 
f 14/29/9 13/30/9 17/31/9 20/32/9 
usemtl peidiangui2
f 21/33/4 22/34/4 23/35/4 24/36/4 
f 25/37/9 26/38/9 27/39/9 28/40/9 
f 21/41/3 24/42/3 26/43/3 25/44/3 
f 24/45/2 23/46/2 27/47/2 26/48/2 
f 23/41/5 22/42/5 28/43/5 27/44/5 
f 22/49/1 21/50/1 25/51/1 28/52/1 
usemtl peidiangui1
f 29/1/1 30/2/1 31/3/1 32/4/1 
f 33/5/2 34/6/2 35/7/2 36/8/2 
f 32/9/3 31/10/3 33/11/3 36/12/3 
f 30/13/4 34/14/4 33/15/4 31/16/4 
f 37/9/5 38/10/5 39/11/5 40/12/5 
f 29/17/6 35/18/6 39/12/6 38/9/6 
f 38/19/1 37/20/1 30/2/1 29/1/1 
f 40/11/2 39/12/2 35/7/2 34/6/2 
f 37/21/4 40/22/4 34/14/4 30/13/4 
f 32/10/6 36/11/6 35/18/6 29/17/6 
f 41/23/1 42/19/1 43/20/1 44/24/1 
f 45/25/2 46/26/2 47/27/2 48/28/2 
f 41/29/7 44/30/7 46/31/7 45/32/7 
f 44/29/4 43/30/4 47/31/4 46/32/4 
f 43/29/8 42/30/8 48/31/8 47/32/8 
f 42/29/9 41/30/9 45/31/9 48/32/9 
usemtl peidiangui2
f 49/33/4 50/34/4 51/35/4 52/36/4 
f 53/37/9 54/38/9 55/39/9 56/40/9 
f 49/41/3 52/42/3 54/43/3 53/44/3 
f 52/45/2 51/46/2 55/47/2 54/48/2 
f 51/41/5 50/42/5 56/43/5 55/44/5 
f 50/49/1 49/50/1 53/51/1 56/52/1 
usemtl peidiangui1
f 57/1/1 58/2/1 59/3/1 60/4/1 
f 61/5/2 62/6/2 63/7/2 64/8/2 
f 60/9/3 59/10/3 61/11/3 64/12/3 
f 58/13/4 62/14/4 61/15/4 59/16/4 
f 65/9/5 66/10/5 67/11/5 68/12/5 
f 57/17/6 63/18/6 67/12/6 66/9/6 
f 66/19/1 65/20/1 58/2/1 57/1/1 
f 68/11/2 67/12/2 63/7/2 62/6/2 
f 65/21/4 68/22/4 62/14/4 58/13/4 
f 60/10/6 64/11/6 63/18/6 57/17/6 
f 69/23/1 70/19/1 71/20/1 72/24/1 
f 73/25/2 74/26/2 75/27/2 76/28/2 
f 69/29/7 72/30/7 74/31/7 73/32/7 
f 72/29/4 71/30/4 75/31/4 74/32/4 
f 71/29/8 70/30/8 76/31/8 75/32/8 
f 70/29/9 69/30/9 73/31/9 76/32/9 
usemtl peidiangui2
f 77/33/4 78/34/4 79/35/4 80/36/4 
f 81/37/9 82/38/9 83/39/9 84/40/9 
f 77/41/3 80/42/3 82/43/3 81/44/3 
f 80/45/2 79/46/2 83/47/2 82/48/2 
f 79/41/5 78/42/5 84/43/5 83/44/5 
f 78/49/1 77/50/1 81/51/1 84/52/1 
usemtl peidiangui1
f 85/1/1 86/2/1 87/3/1 88/4/1 
f 89/5/2 90/6/2 91/7/2 92/8/2 
f 88/9/3 87/10/3 89/11/3 92/12/3 
f 86/13/4 90/14/4 89/15/4 87/16/4 
f 93/9/5 94/10/5 95/11/5 96/12/5 
f 85/17/6 91/18/6 95/12/6 94/9/6 
f 94/19/1 93/20/1 86/2/1 85/1/1 
f 96/11/2 95/12/2 91/7/2 90/6/2 
f 93/21/4 96/22/4 90/14/4 86/13/4 
f 88/10/6 92/11/6 91/18/6 85/17/6 
f 97/23/1 98/19/1 99/20/1 100/24/1 
f 101/25/2 102/26/2 103/27/2 104/28/2 
f 97/29/7 100/30/7 102/31/7 101/32/7 
f 100/29/4 99/30/4 103/31/4 102/32/4 
f 99/29/8 98/30/8 104/31/8 103/32/8 
f 98/29/9 97/30/9 101/31/9 104/32/9 
usemtl peidiangui2
f 105/33/4 106/34/4 107/35/4 108/36/4 
f 109/37/9 110/38/9 111/39/9 112/40/9 
f 105/41/3 108/42/3 110/43/3 109/44/3 
f 108/45/2 107/46/2 111/47/2 110/48/2 
f 107/41/5 106/42/5 112/43/5 111/44/5 
f 106/49/1 105/50/1 109/51/1 112/52/1 
usemtl peidiangui1
f 113/1/1 114/2/1 115/3/1 116/4/1 
f 117/5/2 118/6/2 119/7/2 120/8/2 
f 116/9/3 115/10/3 117/11/3 120/12/3 
f 114/13/4 118/14/4 117/15/4 115/16/4 
f 121/9/5 122/10/5 123/11/5 124/12/5 
f 113/17/6 119/18/6 123/12/6 122/9/6 
f 122/19/1 121/20/1 114/2/1 113/1/1 
f 124/11/2 123/12/2 119/7/2 118/6/2 
f 121/21/4 124/22/4 118/14/4 114/13/4 
f 116/10/6 120/11/6 119/18/6 113/17/6 
f 125/23/1 126/19/1 127/20/1 128/24/1 
f 129/25/2 130/26/2 131/27/2 132/28/2 
f 125/29/7 128/30/7 130/31/7 129/32/7 
f 128/29/4 127/30/4 131/31/4 130/32/4 
f 127/29/8 126/30/8 132/31/8 131/32/8 
f 126/29/9 125/30/9 129/31/9 132/32/9 
usemtl peidiangui2
f 133/33/4 134/34/4 135/35/4 136/36/4 
f 137/37/9 138/38/9 139/39/9 140/40/9 
f 133/41/3 136/42/3 138/43/3 137/44/3 
f 136/45/2 135/46/2 139/47/2 138/48/2 
f 135/41/5 134/42/5 140/43/5 139/44/5 
f 134/49/1 133/50/1 137/51/1 140/52/1 
usemtl peidiangui1
f 141/1/1 142/2/1 143/3/1 144/4/1 
f 145/5/2 146/6/2 147/7/2 148/8/2 
f 144/9/3 143/10/3 145/11/3 148/12/3 
f 142/13/4 146/14/4 145/15/4 143/16/4 
f 149/9/5 150/10/5 151/11/5 152/12/5 
f 141/17/6 147/18/6 151/12/6 150/9/6 
f 150/19/1 149/20/1 142/2/1 141/1/1 
f 152/11/2 151/12/2 147/7/2 146/6/2 
f 149/21/4 152/22/4 146/14/4 142/13/4 
f 144/10/6 148/11/6 147/18/6 141/17/6 
f 153/23/1 154/19/1 155/20/1 156/24/1 
f 157/25/2 158/26/2 159/27/2 160/28/2 
f 153/29/7 156/30/7 158/31/7 157/32/7 
f 156/29/4 155/30/4 159/31/4 158/32/4 
f 155/29/8 154/30/8 160/31/8 159/32/8 
f 154/29/9 153/30/9 157/31/9 160/32/9 
usemtl peidiangui2
f 161/33/4 162/34/4 163/35/4 164/36/4 
f 165/37/9 166/38/9 167/39/9 168/40/9 
f 161/41/3 164/42/3 166/43/3 165/44/3 
f 164/45/2 163/46/2 167/47/2 166/48/2 
f 163/41/5 162/42/5 168/43/5 167/44/5 
f 162/49/1 161/50/1 165/51/1 168/52/1 
usemtl peidiangui1
f 169/1/1 170/2/1 171/3/1 172/4/1 
f 173/5/2 174/6/2 175/7/2 176/8/2 
f 172/9/3 171/10/3 173/11/3 176/12/3 
f 170/13/4 174/14/4 173/15/4 171/16/4 
f 177/9/5 178/10/5 179/11/5 180/12/5 
f 169/17/6 175/18/6 179/12/6 178/9/6 
f 178/19/1 177/20/1 170/2/1 169/1/1 
f 180/11/2 179/12/2 175/7/2 174/6/2 
f 177/21/4 180/22/4 174/14/4 170/13/4 
f 172/10/6 176/11/6 175/18/6 169/17/6 
f 181/23/1 182/19/1 183/20/1 184/24/1 
f 185/25/2 186/26/2 187/27/2 188/28/2 
f 181/29/7 184/30/7 186/31/7 185/32/7 
f 184/29/4 183/30/4 187/31/4 186/32/4 
f 183/29/8 182/30/8 188/31/8 187/32/8 
f 182/29/9 181/30/9 185/31/9 188/32/9 
usemtl peidiangui2
f 189/33/4 190/34/4 191/35/4 192/36/4 
f 193/37/9 194/38/9 195/39/9 196/40/9 
f 189/41/3 192/42/3 194/43/3 193/44/3 
f 192/45/2 191/46/2 195/47/2 194/48/2 
f 191/41/5 190/42/5 196/43/5 195/44/5 
f 190/49/1 189/50/1 193/51/1 196/52/1 
usemtl peidiangui1
f 197/1/1 198/2/1 199/3/1 200/4/1 
f 201/5/2 202/6/2 203/7/2 204/8/2 
f 200/9/3 199/10/3 201/11/3 204/12/3 
f 198/13/4 202/14/4 201/15/4 199/16/4 
f 205/9/5 206/10/5 207/11/5 208/12/5 
f 197/17/6 203/18/6 207/12/6 206/9/6 
f 206/19/1 205/20/1 198/2/1 197/1/1 
f 208/11/2 207/12/2 203/7/2 202/6/2 
f 205/21/4 208/22/4 202/14/4 198/13/4 
f 200/10/6 204/11/6 203/18/6 197/17/6 
f 209/23/1 210/19/1 211/20/1 212/24/1 
f 213/25/2 214/26/2 215/27/2 216/28/2 
f 209/29/7 212/30/7 214/31/7 213/32/7 
f 212/29/4 211/30/4 215/31/4 214/32/4 
f 211/29/8 210/30/8 216/31/8 215/32/8 
f 210/29/9 209/30/9 213/31/9 216/32/9 
usemtl peidiangui2
f 217/33/4 218/34/4 219/35/4 220/36/4 
f 221/37/9 222/38/9 223/39/9 224/40/9 
f 217/41/3 220/42/3 222/43/3 221/44/3 
f 220/45/2 219/46/2 223/47/2 222/48/2 
f 219/41/5 218/42/5 224/43/5 223/44/5 
f 218/49/1 217/50/1 221/51/1 224/52/1 
usemtl peidiangui1
f 225/1/1 226/2/1 227/3/1 228/4/1 
f 229/5/2 230/6/2 231/7/2 232/8/2 
f 228/9/3 227/10/3 229/11/3 232/12/3 
f 226/13/4 230/14/4 229/15/4 227/16/4 
f 233/9/5 234/10/5 235/11/5 236/12/5 
f 225/17/6 231/18/6 235/12/6 234/9/6 
f 234/19/1 233/20/1 226/2/1 225/1/1 
f 236/11/2 235/12/2 231/7/2 230/6/2 
f 233/21/4 236/22/4 230/14/4 226/13/4 
f 228/10/6 232/11/6 231/18/6 225/17/6 
f 237/23/1 238/19/1 239/20/1 240/24/1 
f 241/25/2 242/26/2 243/27/2 244/28/2 
f 237/29/7 240/30/7 242/31/7 241/32/7 
f 240/29/4 239/30/4 243/31/4 242/32/4 
f 239/29/8 238/30/8 244/31/8 243/32/8 
f 238/29/9 237/30/9 241/31/9 244/32/9 
usemtl peidiangui2
f 245/33/4 246/34/4 247/35/4 248/36/4 
f 249/37/9 250/38/9 251/39/9 252/40/9 
f 245/41/3 248/42/3 250/43/3 249/44/3 
f 248/45/2 247/46/2 251/47/2 250/48/2 
f 247/41/5 246/42/5 252/43/5 251/44/5 
f 246/49/1 245/50/1 249/51/1 252/52/1 
usemtl peidiangui1
f 253/1/1 254/2/1 255/3/1 256/4/1 
f 257/5/2 258/6/2 259/7/2 260/8/2 
f 256/9/3 255/10/3 257/11/3 260/12/3 
f 254/13/4 258/14/4 257/15/4 255/16/4 
f 261/9/5 262/10/5 263/11/5 264/12/5 
f 253/17/6 259/18/6 263/12/6 262/9/6 
f 262/19/1 261/20/1 254/2/1 253/1/1 
f 264/11/2 263/12/2 259/7/2 258/6/2 
f 261/21/4 264/22/4 258/14/4 254/13/4 
f 256/10/6 260/11/6 259/18/6 253/17/6 
f 265/23/1 266/19/1 267/20/1 268/24/1 
f 269/25/2 270/26/2 271/27/2 272/28/2 
f 265/29/7 268/30/7 270/31/7 269/32/7 
f 268/29/4 267/30/4 271/31/4 270/32/4 
f 267/29/8 266/30/8 272/31/8 271/32/8 
f 266/29/9 265/30/9 269/31/9 272/32/9 
usemtl peidiangui2
f 273/33/4 274/34/4 275/35/4 276/36/4 
f 277/37/9 278/38/9 279/39/9 280/40/9 
f 273/41/3 276/42/3 278/43/3 277/44/3 
f 276/45/2 275/46/2 279/47/2 278/48/2 
f 275/41/5 274/42/5 280/43/5 279/44/5 
f 274/49/1 273/50/1 277/51/1 280/52/1 
# 220 polygons

#
# object PDG_F1_F10_B
#

v  -23096.7676 643.0430 -48951.6172
v  -23119.9961 643.0430 -49015.4375
v  -23119.9961 38314.3242 -49015.4375
v  -23096.7676 38314.3242 -48951.6172
v  -23178.8145 643.0430 -49049.3984
v  -23178.8145 38314.3242 -49049.3984
v  -23245.7012 643.0430 -49037.6094
v  -23245.7012 38314.3242 -49037.6016
v  -23289.3594 643.0430 -48985.5781
v  -23289.3594 38314.3242 -48985.5781
v  -23289.3594 643.0430 -48917.6563
v  -23289.3594 38314.3242 -48917.6563
v  -23245.7012 643.0430 -48865.6328
v  -23245.7012 38314.3242 -48865.6328
v  -23178.8145 643.0430 -48853.8359
v  -23178.8145 38314.3242 -48853.8359
v  -23119.9961 643.0430 -48887.7969
v  -23119.9961 38314.3242 -48887.7969
# 18 vertices

vn 1.0000 0.0000 -0.0000
vn 0.7661 0.0000 -0.6428
vn 1.0000 -0.0000 -0.0000
vn 0.1737 0.0000 -0.9848
vn 0.1736 0.0000 -0.9848
vn -0.5000 0.0000 -0.8660
vn -0.9397 0.0000 -0.3420
vn -0.9397 0.0000 0.3420
vn -0.5000 -0.0000 0.8660
vn -0.5000 0.0000 0.8660
vn 0.1737 -0.0000 0.9848
vn 0.1736 -0.0000 0.9848
vn 0.7660 -0.0000 0.6428
vn 0.7661 -0.0000 0.6428
vn 0.0000 -1.0000 -0.0000
vn 0.0000 1.0000 -0.0000
# 16 vertex normals

vt 0.7500 0.0000 1.0000
vt 0.8611 0.0000 1.0000
vt 0.8611 1.0000 1.0000
vt 0.7500 1.0000 1.0000
vt 0.9722 0.0000 1.0000
vt 0.9722 1.0000 1.0000
vt 1.0833 0.0000 1.0000
vt 1.0833 1.0000 1.0000
vt 0.0833 0.0000 1.0000
vt 0.1944 0.0000 1.0000
vt 0.1944 1.0000 1.0000
vt 0.0833 1.0000 1.0000
vt 0.3056 0.0000 1.0000
vt 0.3056 1.0000 1.0000
vt 0.4167 0.0000 1.0000
vt 0.4167 1.0000 1.0000
vt 0.5278 0.0000 1.0000
vt 0.5278 1.0000 1.0000
vt 0.6389 0.0000 1.0000
vt 0.6389 1.0000 1.0000
vt 0.9924 0.5868 -0.2500
vt 0.9330 0.2500 -0.2500
vt 0.6710 0.0302 -0.2500
vt 0.1786 0.8830 -0.2500
vt 0.3290 0.0302 -0.2500
vt 0.0670 0.2500 -0.2500
vt 0.0076 0.5868 -0.2500
vt 0.5000 1.0000 -0.2500
vt 0.8214 0.8830 -0.2500
vt 0.1786 0.8830 0.2500
vt 0.0076 0.5868 0.2500
vt 0.0670 0.2500 0.2500
vt 0.9924 0.5868 0.2500
vt 0.3290 0.0302 0.2500
vt 0.6710 0.0302 0.2500
vt 0.9330 0.2500 0.2500
vt 0.8214 0.8830 0.2500
vt 0.5000 1.0000 0.2500
# 38 texture coords

g PDG_F1_F10_B
usemtl 24___Default
s 8
f 281/53/10 282/54/11 283/55/11 284/56/12 
f 282/54/11 285/57/13 286/58/14 283/55/11 
f 285/57/13 287/59/15 288/60/15 286/58/14 
f 287/61/15 289/62/16 290/63/16 288/64/15 
f 289/62/16 291/65/17 292/66/17 290/63/16 
f 291/65/17 293/67/18 294/68/19 292/66/17 
f 293/67/18 295/69/20 296/70/21 294/68/19 
f 295/69/20 297/71/22 298/72/23 296/70/21 
f 297/71/22 281/53/10 284/56/12 298/72/23 
s 1
f 295/73/24 293/74/24 291/75/24 282/76/24 
f 291/75/24 289/77/24 287/78/24 282/76/24 
f 287/78/24 285/79/24 282/76/24 
f 295/73/24 282/76/24 281/80/24 297/81/24 
f 283/82/25 286/83/25 288/84/25 296/85/25 
f 288/84/25 290/86/25 292/87/25 296/85/25 
f 292/87/25 294/88/25 296/85/25 
f 283/82/25 296/85/25 298/89/25 284/90/25 
# 15 polygons - 2 triangles

