# 3ds Max Wavefront OBJ Exporter v0.97b - (c)2007 guruware
# 创建的文件:07.05.2022 15:29:05

mtllib SX-F1F.mtl

#
# object SX_F1F
#

v  11700.0430 -5910.8101 -58905.9883
v  19373.1895 -5929.3916 -58905.9922
v  19409.2148 -5938.9116 -48499.3125
v  11700.0430 -5938.9116 -48499.3125
v  19409.2148 -1215.6461 -48525.4141
v  19373.1875 -2717.6436 -58932.0898
v  11700.0430 -2781.5269 -58932.0898
v  11700.0430 -1215.6465 -48525.4141
v  23090.8477 -5938.9116 -48499.3125
v  23091.0938 -5947.9722 -58905.9883
v  23091.0918 -3301.0176 -58932.0898
v  23090.8477 -1311.7006 -48525.4141
v  -13624.9160 -5949.9272 -51239.5625
v  -5920.1934 -5939.2637 -51196.7266
v  -5929.6230 -5934.0796 -51221.0625
v  -13634.3457 -5944.7412 -51263.9023
v  18470.1348 -5942.1021 -63031.4141
v  23115.1328 -5958.7271 -65195.3789
v  11258.6367 -3084.0215 -59678.5977
v  11268.0664 -5925.4761 -59654.2578
v  18460.7070 -3114.2383 -63055.7578
v  23105.7031 -3363.4502 -65219.7188
v  15744.7617 -5945.5249 -66603.8438
v  23142.4922 -5945.6558 -69160.8750
v  9308.9805 -3405.4746 -61656.3828
v  9318.4102 -5945.3940 -61632.0508
v  15735.3330 -3405.4756 -66628.1875
v  23133.0645 -3405.4751 -69185.2109
v  10984.5322 -5945.8354 -69183.7656
v  5594.4590 -3666.4966 -61832.2891
v  5603.8877 -5959.8345 -61807.9570
v  10975.1035 -3535.9873 -69208.1094
v  11085.0059 -3666.4980 -69231.0000
v  11094.4355 -5946.0137 -69206.6641
v  4218.2617 -5948.2773 -61807.7852
v  4154.1943 -5951.0190 -69195.6094
v  4208.8330 -3764.6367 -61832.1211
v  4144.7656 -3905.0664 -69219.9453
v  -3375.4668 -5945.9204 -61687.6992
v  -4568.9316 -5945.7280 -69216.0625
v  -3384.8965 -4311.0127 -61712.0313
v  -4578.3594 -4311.0137 -69240.3984
v  -5407.7676 -5939.3013 -60096.5859
v  -8688.5449 -5926.7778 -67677.3203
v  -5417.1973 -4716.9600 -60120.9219
v  -8697.9746 -4716.9595 -67701.6563
v  -5931.8633 -5956.9727 -58929.7148
v  -12040.6270 -5956.3228 -64027.4180
v  -5941.2930 -4830.6709 -58954.0469
v  -12050.0566 -4948.4395 -64051.7539
v  -6035.8770 -5922.2231 -57638.4570
v  -13668.7520 -5952.9800 -60323.3438
v  -6045.3066 -4947.8755 -57662.7891
v  -13678.1816 -5333.7163 -60347.6836
v  23066.8340 -1232.5829 -48719.1563
v  23067.0781 -1164.4934 -59125.8320
v  19349.1738 -1228.3771 -59125.8320
v  19385.2012 -1136.5282 -48719.1563
v  23081.6895 -1226.9259 -65413.4609
v  18219.6680 -1164.5385 -63246.5078
v  23109.0508 -1268.9510 -69378.9531
v  15676.9248 -1175.2013 -66655.5078
v  10388.7832 -1399.4628 -69576.2656
# 63 vertices

vn -0.0014 -1.0000 -0.0016
vn -0.0037 -1.0000 -0.0009
vn -0.0010 -1.0000 -0.0007
vn -0.0000 -1.0000 -0.0027
vn -0.0033 0.9892 -0.1464
vn -0.0082 0.9897 -0.1428
vn -0.0049 0.9894 -0.1452
vn -0.0000 0.9889 -0.1488
vn -0.0000 0.0055 1.0000
vn 0.0000 0.0056 1.0000
vn 1.0000 0.0000 0.0000
vn -0.0025 0.9778 0.2093
vn -1.0000 -0.0000 0.0000
vn -1.0000 -0.0000 -0.0000
vn -0.0035 -1.0000 0.0026
vn -0.8637 0.0029 0.5040
vn -0.0325 0.9906 -0.1332
vn 1.0000 0.0018 0.0031
vn -0.0017 -1.0000 -0.0007
vn -0.7123 0.0039 0.7019
vn -0.0430 0.9963 -0.0738
vn 1.0000 0.0037 0.0069
vn 0.0000 -1.0000 0.0001
vn -0.0477 0.0099 0.9988
vn -0.0413 0.9988 -0.0264
vn -0.0676 0.9964 -0.0502
vn 0.0019 -0.0098 -0.9999
vn -0.0008 -1.0000 -0.0010
vn -0.0002 0.0109 0.9999
vn -0.0404 0.9989 -0.0243
vn -0.0014 -0.0113 -0.9999
vn -0.0005 -1.0000 0.0002
vn 0.0154 0.0128 0.9998
vn -0.0583 0.9983 -0.0045
vn 0.0026 -0.0132 -0.9999
vn -0.0040 -1.0000 0.0003
vn 0.6153 0.0175 0.7881
vn -0.1139 0.9929 0.0337
vn -0.3491 -0.0183 -0.9369
vn 0.0057 -1.0000 -0.0052
vn 0.9118 0.0158 0.4104
vn -0.0523 0.9982 0.0295
vn -0.7360 -0.0211 -0.6767
vn -0.0018 -1.0000 0.0070
vn 0.9967 0.0108 0.0806
vn -0.0778 0.9943 0.0730
vn -0.9148 -0.0227 -0.4033
vn 0.0029 -1.0000 -0.0009
vn 0.9997 0.0184 -0.0165
vn -0.0440 0.9937 0.1027
vn -0.9995 -0.0299 0.0038
vn -0.0039 -1.0000 -0.0005
vn 0.0000 -1.0000 0.0009
vn 0.0166 0.9998 -0.0055
vn -0.0172 0.9998 0.0065
vn -0.0078 1.0000 0.0032
vn 0.0261 0.9996 -0.0089
vn 0.0001 0.0056 1.0000
vn -0.0010 -1.0000 0.0059
vn -0.0001 1.0000 0.0001
vn 0.0009 -1.0000 0.0035
vn 0.0087 0.9999 -0.0101
vn 0.0040 -1.0000 0.0010
vn -0.0093 0.9982 -0.0598
vn 0.2102 0.0110 0.9776
vn 0.9998 0.0213 -0.0019
vn 0.9999 0.0114 0.0022
vn 0.9999 0.0119 0.0068
vn 0.0101 -0.1289 -0.9916
vn -0.4804 0.0085 0.8770
vn -0.7974 -0.0257 0.6029
vn -0.9691 -0.0476 0.2420
vn -0.9996 -0.0292 0.0057
vn 0.0242 0.9266 0.3754
# 74 vertex normals

vt -0.4474 0.5461 0.1884
vt -1.4906 0.5464 0.1859
vt -1.4955 -0.8562 0.0000
vt -0.4474 -0.8562 0.0000
vt 2.4955 -0.9365 0.6372
vt 2.4906 0.4930 0.6193
vt 1.4474 0.4941 0.6107
vt 1.4474 -0.9365 0.6372
vt 2.4955 0.0000 -0.8562
vt 2.4955 0.6372 -0.9365
vt 1.4474 0.6372 -0.9365
vt 1.4474 0.0000 -0.8562
vt -0.8562 0.0000 2.9961
vt 0.5468 0.1834 2.9961
vt 0.5033 0.5407 2.9961
vt -0.9348 0.6242 2.9961
vt -1.9959 -0.4866 0.0471
vt -0.9483 -0.4926 0.0478
vt -0.9496 -0.4894 0.0489
vt -1.9971 -0.4834 0.0483
vt 0.4539 0.1884 1.4474
vt 1.8562 0.0000 1.4474
vt 1.9365 0.6372 1.4474
vt 0.5059 0.6107 1.4474
vt -1.9961 0.5468 0.1834
vt -1.3678 1.1028 0.2574
vt -1.9994 1.3947 0.2936
vt 0.3999 0.5832 1.3873
vt 0.3528 0.1997 1.3886
vt 2.3666 1.0559 0.6391
vt 1.3873 0.6001 0.5832
vt 1.3947 0.2936 2.9994
vt 1.3520 0.6439 2.9981
vt -0.9973 1.5844 0.3204
vt -2.0031 1.9291 0.3657
vt 0.1276 0.5750 1.1223
vt 0.0858 0.2322 1.1236
vt 1.9960 1.5426 0.6632
vt 1.1223 0.8724 0.5750
vt 1.9291 0.3657 3.0031
vt 1.8873 0.7086 3.0018
vt -0.3501 1.9321 0.3661
vt 1.1236 0.2322 0.9142
vt 1.1223 0.5750 0.8724
vt 0.6172 0.5429 0.9007
vt 0.6185 0.2333 0.9381
vt 1.3488 1.8927 0.6914
vt 1.3637 1.8981 0.6742
vt 0.6172 0.9007 0.5429
vt -2.0031 0.3657 1.9291
vt -0.3501 0.3661 1.9321
vt -0.3488 0.6914 1.8927
vt -2.0018 0.7086 1.8873
vt -0.3650 1.9352 0.3665
vt 0.3815 0.9381 0.2333
vt 0.5699 0.9379 0.2349
vt 0.5786 1.9338 0.3656
vt 0.4288 0.5297 0.9025
vt 0.4301 0.2349 0.9379
vt 0.4201 1.9008 0.6418
vt 0.4288 0.9025 0.5297
vt -0.3637 0.6742 1.8981
vt -0.3650 0.3665 1.9352
vt 0.5786 0.3656 1.9338
vt 0.5799 0.6418 1.9008
vt 1.6023 0.9217 0.2331
vt 1.7646 1.9365 0.3667
vt -0.6036 0.4539 0.8960
vt -0.6023 0.2331 0.9217
vt -0.7659 1.9108 0.5875
vt -0.6036 0.8960 0.4539
vt 1.7646 0.3667 1.9365
vt 1.7659 0.5875 1.9108
vt 1.8786 0.7071 0.2057
vt 2.3247 1.7287 0.3419
vt -0.8799 0.3709 0.6887
vt -0.8786 0.2057 0.7071
vt -1.3260 1.7106 0.5055
vt -0.8799 0.6887 0.3709
vt 2.3247 0.3419 1.7287
vt 2.3260 0.5055 1.7106
vt 1.9499 0.5501 0.1826
vt 2.7804 1.2373 0.2732
vt 0.7071 0.2057 -0.8786
vt 0.6887 0.3709 -0.8799
vt 0.5334 0.3349 -0.9512
vt 0.5501 0.1826 -0.9499
vt -1.7817 1.2227 0.4095
vt -0.9512 0.5334 0.3349
vt -0.7106 0.5055 -1.3260
vt -0.7287 0.3419 -1.3247
vt -0.2373 0.2732 -1.7804
vt -0.2227 0.4095 -1.7817
vt 1.9640 0.3754 0.1644
vt 3.0018 0.7379 0.2079
vt 0.3614 0.2962 -0.9653
vt 0.3754 0.1644 -0.9640
vt -2.0031 0.7302 0.2918
vt -0.9653 0.3614 0.2962
vt 0.2621 0.2079 -2.0018
vt 0.2698 0.2918 -2.0031
vt 1.9483 -0.4926 0.0478
vt 2.9959 -0.4866 0.0471
vt -0.4926 0.0478 -0.9483
vt -0.4894 0.0489 -0.9496
vt 1.4834 0.0483 -1.9971
vt 1.4866 0.0471 -1.9959
vt -1.9961 -0.8562 0.0000
vt 2.9928 -0.9101 0.6383
vt 2.9928 0.4915 0.8321
vt 2.4873 0.4926 0.8235
vt 2.4922 -0.9118 0.6513
vt 2.9961 0.0000 -0.8562
vt 2.9961 0.6242 -0.9348
vt -0.3886 0.6472 0.1997
vt 2.9948 1.3402 0.9353
vt 2.3338 1.0470 0.9053
vt -0.1236 0.9142 0.2322
vt 2.9985 1.8755 1.0000
vt 1.9881 1.5067 0.9643
vt 1.2691 1.9044 0.9859
vt 1.3650 0.3665 1.9352
vt 1.3637 0.6742 1.8981
vt 1.3488 0.6914 1.8927
vt 1.3501 0.3661 1.9321
vt 0.4915 0.8321 2.9928
vt -0.9101 0.6383 2.9928
vt 1.3402 0.9353 2.9948
vt 1.8755 1.0000 2.9985
vt -0.2691 0.9859 1.9044
vt -1.9985 1.0000 1.8755
vt 1.9960 0.6632 1.5426
vt 1.9881 0.9643 1.5067
vt 1.2691 0.9859 1.9044
vt -0.5426 0.6632 1.9960
vt -0.0559 0.6391 2.3666
vt -0.0470 0.9053 2.3338
vt -0.5067 0.9643 1.9881
vt 0.5070 0.6193 2.4906
vt 0.5074 0.8235 2.4873
vt 1.9365 0.6372 2.4955
vt 1.9118 0.6513 2.4922
vt 2.9961 -0.9348 0.6242
# 143 texture coords

g SX_F1F
usemtl shuixiang
s 2
f 1/1/1 2/2/2 3/3/3 4/4/4 
s 4
f 5/5/5 6/6/6 7/7/7 8/8/8 
s 8
f 3/9/9 5/10/10 8/11/9 4/12/9 
s 16
f 9/13/11 10/14/11 11/15/11 12/16/11 
s 32
f 13/17/12 14/18/12 15/19/12 16/20/12 
s 64
f 1/21/13 4/22/14 8/23/13 7/24/13 
s off
f 10/25/15 2/2/15 17/26/15 18/27/15 
f 1/21/16 7/24/16 19/28/16 20/29/16 
f 6/6/17 21/30/17 19/31/17 7/7/17 
f 11/15/18 10/14/18 18/32/18 22/33/18 
f 18/27/19 17/26/19 23/34/19 24/35/19 
f 20/29/20 19/28/20 25/36/20 26/37/20 
f 19/31/21 21/30/21 27/38/21 25/39/21 
f 22/33/22 18/32/22 24/40/22 28/41/22 
f 24/35/23 23/34/23 29/42/23 
f 26/43/24 25/44/24 30/45/24 31/46/24 
f 25/39/25 27/38/25 32/47/25 33/48/25 
f 25/39/26 33/48/26 30/49/26 
f 24/50/27 29/51/27 32/52/27 28/53/27 
f 34/54/28 31/55/28 35/56/28 36/57/28 
f 31/46/29 30/45/29 37/58/29 35/59/29 
f 30/49/30 33/48/30 38/60/30 37/61/30 
f 33/62/31 34/63/31 36/64/31 38/65/31 
f 36/57/32 35/56/32 39/66/32 40/67/32 
f 35/59/33 37/58/33 41/68/33 39/69/33 
f 37/61/34 38/60/34 42/70/34 41/71/34 
f 38/65/35 36/64/35 40/72/35 42/73/35 
f 40/67/36 39/66/36 43/74/36 44/75/36 
f 39/69/37 41/68/37 45/76/37 43/77/37 
f 41/71/38 42/70/38 46/78/38 45/79/38 
f 42/73/39 40/72/39 44/80/39 46/81/39 
f 44/75/40 43/74/40 47/82/40 48/83/40 
f 43/84/41 45/85/41 49/86/41 47/87/41 
f 45/79/42 46/78/42 50/88/42 49/89/42 
f 46/90/43 44/91/43 48/92/43 50/93/43 
f 48/83/44 47/82/44 51/94/44 52/95/44 
f 47/87/45 49/86/45 53/96/45 51/97/45 
f 49/89/46 50/88/46 54/98/46 53/99/46 
f 50/93/47 48/92/47 52/100/47 54/101/47 
f 52/95/48 51/94/48 14/102/48 13/103/48 
f 14/104/49 51/97/49 53/96/49 15/105/49 
f 53/99/50 54/98/50 16/20/50 15/19/50 
f 16/106/51 54/101/51 52/100/51 13/107/51 
s 2
f 10/25/52 9/108/53 3/3/3 2/2/2 
s 4
f 55/109/54 56/110/55 57/111/56 58/112/57 
s 8
f 9/113/58 12/114/58 5/10/10 3/9/9 
s off
f 2/2/59 1/1/59 20/115/59 17/26/59 
f 56/110/60 59/116/60 60/117/60 57/111/60 
f 20/115/61 26/118/61 23/34/61 17/26/61 
f 59/116/62 61/119/62 62/120/62 60/117/62 
f 26/118/63 31/55/63 34/54/63 29/42/63 
f 23/34/23 26/118/23 29/42/23 
f 62/120/64 61/119/64 63/121/64 
f 34/122/65 33/123/65 32/124/65 29/125/65 
f 12/16/66 11/15/66 56/126/66 55/127/66 
f 11/15/67 22/33/67 59/128/67 56/126/67 
f 22/33/68 28/41/68 61/129/68 59/128/68 
f 28/53/69 32/52/69 63/130/69 61/131/69 
f 32/124/70 27/132/70 62/133/70 63/134/70 
f 27/135/71 21/136/71 60/137/71 62/138/71 
f 21/136/72 6/139/72 57/140/72 60/137/72 
f 6/139/73 5/141/73 58/142/73 57/140/73 
f 5/5/74 12/143/74 55/109/74 58/112/74 
# 59 polygons - 4 triangles

