# 3ds Max Wavefront OBJ Exporter v0.97b - (c)2007 guruware
# 创建的文件:07.05.2022 16:09:42

mtllib MHS-2F.mtl

#
# object MHS_2F
#

v  -30661.3223 5596.5039 -47509.4609
v  -30661.3223 6396.1563 -47509.4609
v  -30661.3223 6396.1563 -46809.4609
v  -30661.3223 5596.5039 -46809.4609
v  -30813.4355 5596.5039 -47509.4609
v  -30813.4355 5596.5039 -46809.4609
v  -30813.4355 6396.1563 -46809.4609
v  -30813.4355 6396.1563 -47509.4609
v  -30828.8340 5596.5039 -42712.3789
v  -30828.8340 6396.1563 -42712.3789
v  -30828.8340 6396.1563 -42012.3789
v  -30828.8340 5596.5039 -42012.3789
v  -30980.9473 5596.5039 -42712.3789
v  -30980.9473 5596.5039 -42012.3789
v  -30980.9473 6396.1563 -42012.3789
v  -30980.9473 6396.1563 -42712.3789
v  -21861.3164 5596.5039 -56187.6289
v  -21861.3164 6396.1563 -56187.6289
v  -21861.3164 6396.1563 -55487.6289
v  -21861.3164 5596.5039 -55487.6289
v  -22013.4316 5596.5039 -56187.6289
v  -22013.4316 5596.5039 -55487.6289
v  -22013.4316 6396.1563 -55487.6289
v  -22013.4316 6396.1563 -56187.6289
v  -21861.3164 5596.5039 -32387.6328
v  -21861.3164 6396.1563 -32387.6328
v  -21861.3164 6396.1563 -31687.6328
v  -21861.3164 5596.5039 -31687.6328
v  -22013.4316 5596.5039 -32387.6328
v  -22013.4316 5596.5039 -31687.6328
v  -22013.4316 6396.1563 -31687.6328
v  -22013.4316 6396.1563 -32387.6328
v  -21976.4590 5596.5039 -30190.6523
v  -21976.4590 6396.1563 -30190.6523
v  -21976.4590 6396.1563 -29490.6523
v  -21976.4590 5596.5039 -29490.6523
v  -22128.5742 5596.5039 -30190.6523
v  -22128.5742 5596.5039 -29490.6523
v  -22128.5742 6396.1563 -29490.6523
v  -22128.5742 6396.1563 -30190.6523
v  2883.6797 5596.5039 -18156.7852
v  2883.6797 6396.1563 -18156.7852
v  2883.6797 6396.1563 -17456.7852
v  2883.6797 5596.5039 -17456.7852
v  2731.5652 5596.5039 -18156.7852
v  2731.5652 5596.5039 -17456.7852
v  2731.5652 6396.1563 -17456.7852
v  2731.5652 6396.1563 -18156.7852
v  2883.6797 5596.5039 -30256.7852
v  2883.6797 6396.1563 -30256.7852
v  2883.6797 6396.1563 -29556.7852
v  2883.6797 5596.5039 -29556.7852
v  2731.5652 5596.5039 -30256.7852
v  2731.5652 5596.5039 -29556.7852
v  2731.5652 6396.1563 -29556.7852
v  2731.5652 6396.1563 -30256.7852
v  2738.6816 5596.5039 -32416.7852
v  2738.6816 6396.1563 -32416.7852
v  2738.6816 6396.1563 -31716.7852
v  2738.6816 5596.5039 -31716.7852
v  2586.5671 5596.5039 -32416.7852
v  2586.5671 5596.5039 -31716.7852
v  2586.5671 6396.1563 -31716.7852
v  2586.5671 6396.1563 -32416.7852
v  -14942.4277 5596.5039 -47918.7969
v  -14942.4277 6396.1563 -47918.7969
v  -14242.4277 6396.1563 -47918.7969
v  -14242.4277 5596.5039 -47918.7969
v  -14942.4277 5596.5039 -47766.6836
v  -14242.4277 5596.5039 -47766.6836
v  -14242.4277 6396.1563 -47766.6836
v  -14942.4277 6396.1563 -47766.6836
v  757.5708 5596.5039 -47918.7969
v  757.5708 6396.1563 -47918.7969
v  1457.5708 6396.1563 -47918.7969
v  1457.5708 5596.5039 -47918.7969
v  757.5708 5596.5039 -47766.6836
v  1457.5708 5596.5039 -47766.6836
v  1457.5708 6396.1563 -47766.6836
v  757.5708 6396.1563 -47766.6836
v  18057.5703 5596.5039 -47918.7969
v  18057.5703 6396.1563 -47918.7969
v  18757.5703 6396.1563 -47918.7969
v  18757.5703 5596.5039 -47918.7969
v  18057.5703 5596.5039 -47766.6836
v  18757.5703 5596.5039 -47766.6836
v  18757.5703 6396.1563 -47766.6836
v  18057.5703 6396.1563 -47766.6836
v  -21976.6191 5596.5039 -13190.4854
v  -21976.6191 6396.1563 -13190.4854
v  -21976.6191 6396.1563 -12490.4854
v  -21976.6191 5596.5039 -12490.4854
v  -22128.7344 5596.5039 -13190.4854
v  -22128.7344 5596.5039 -12490.4854
v  -22128.7344 6396.1563 -12490.4854
v  -22128.7344 6396.1563 -13190.4854
v  -4787.1191 5596.5039 4541.5400
v  -4787.1191 6396.1563 4541.5400
v  -4087.1187 6396.1563 4541.5400
v  -4087.1187 5596.5039 4541.5400
v  -4787.1191 5596.5039 4693.6543
v  -4087.1187 5596.5039 4693.6543
v  -4087.1187 6396.1563 4693.6543
v  -4787.1191 6396.1563 4693.6543
v  -22807.3770 5596.5039 -8868.7920
v  -22807.3770 6396.1563 -8868.7920
v  -22107.3770 6396.1563 -8868.7920
v  -22107.3770 5596.5039 -8868.7920
v  -22807.3770 5596.5039 -8716.6777
v  -22107.3770 5596.5039 -8716.6777
v  -22107.3770 6396.1563 -8716.6777
v  -22807.3770 6396.1563 -8716.6777
v  3192.7935 5596.5039 -14918.6895
v  3192.7935 6396.1563 -14918.6895
v  3892.7935 6396.1563 -14918.6895
v  3892.7935 5596.5039 -14918.6895
v  3192.7935 5596.5039 -14766.5752
v  3892.7935 5596.5039 -14766.5752
v  3892.7935 6396.1563 -14766.5742
v  3192.7935 6396.1563 -14766.5742
v  3192.7935 5596.5039 -8856.0420
v  3192.7935 6396.1563 -8856.0420
v  3892.7935 6396.1563 -8856.0420
v  3892.7935 5596.5039 -8856.0420
v  3192.7935 5596.5039 -8703.9277
v  3892.7935 5596.5039 -8703.9277
v  3892.7935 6396.1563 -8703.9277
v  3192.7935 6396.1563 -8703.9277
# 128 vertices

vn 1.0000 0.0000 -0.0000
vn -1.0000 0.0000 -0.0000
vn 0.0000 -1.0000 -0.0000
vn 0.0000 0.0000 1.0000
vn 0.0000 1.0000 -0.0000
vn 0.0000 0.0000 -1.0000
vn -1.0000 -0.0000 -0.0000
vn 0.0000 -0.0000 1.0000
# 8 vertex normals

vt 1.0000 0.0000 0.0000
vt 1.0000 1.0000 0.0000
vt 0.0000 1.0000 0.0000
vt 0.0000 0.0000 0.0000
vt 0.0984 0.0973 0.0000
vt 0.1041 0.9047 0.0000
vt 0.0107 0.9052 0.0000
vt 0.0111 0.0978 0.0000
# 8 texture coords

g MHS_2F
usemtl xiaofangshuan_t
s 2
f 1/1/1 2/2/1 3/3/1 4/4/1 
s 4
f 5/4/2 6/1/2 7/2/2 8/3/2 
s 8
f 1/5/3 4/6/3 6/7/3 5/8/3 
s 16
f 4/5/4 3/6/4 7/7/4 6/8/4 
s 32
f 3/5/5 2/6/5 8/7/5 7/8/5 
s 64
f 2/5/6 1/6/6 5/7/6 8/8/6 
s 2
f 9/1/1 10/2/1 11/3/1 12/4/1 
s 4
f 13/4/2 14/1/2 15/2/2 16/3/2 
s 8
f 9/5/3 12/6/3 14/7/3 13/8/3 
s 16
f 12/5/4 11/6/4 15/7/4 14/8/4 
s 32
f 11/5/5 10/6/5 16/7/5 15/8/5 
s 64
f 10/5/6 9/6/6 13/7/6 16/8/6 
s 2
f 17/1/1 18/2/1 19/3/1 20/4/1 
s 4
f 21/4/2 22/1/2 23/2/2 24/3/2 
s 8
f 17/5/3 20/6/3 22/7/3 21/8/3 
s 16
f 20/5/4 19/6/4 23/7/4 22/8/4 
s 32
f 19/5/5 18/6/5 24/7/5 23/8/5 
s 64
f 18/5/6 17/6/6 21/7/6 24/8/6 
s 2
f 25/1/1 26/2/1 27/3/1 28/4/1 
s 4
f 29/4/2 30/1/2 31/2/2 32/3/2 
s 8
f 25/5/3 28/6/3 30/7/3 29/8/3 
s 16
f 28/5/4 27/6/4 31/7/4 30/8/4 
s 32
f 27/5/5 26/6/5 32/7/5 31/8/5 
s 64
f 26/5/6 25/6/6 29/7/6 32/8/6 
s 2
f 33/1/1 34/2/1 35/3/1 36/4/1 
s 4
f 37/4/2 38/1/2 39/2/2 40/3/2 
s 8
f 33/5/3 36/6/3 38/7/3 37/8/3 
s 16
f 36/5/4 35/6/4 39/7/4 38/8/4 
s 32
f 35/5/5 34/6/5 40/7/5 39/8/5 
s 64
f 34/5/6 33/6/6 37/7/6 40/8/6 
s 2
f 41/1/1 42/2/1 43/3/1 44/4/1 
s 4
f 45/4/7 46/1/7 47/2/7 48/3/7 
s 8
f 41/5/3 44/6/3 46/7/3 45/8/3 
s 16
f 44/5/4 43/6/4 47/7/4 46/8/4 
s 32
f 43/5/5 42/6/5 48/7/5 47/8/5 
s 64
f 42/5/6 41/6/6 45/7/6 48/8/6 
s 2
f 49/1/1 50/2/1 51/3/1 52/4/1 
s 4
f 53/4/7 54/1/7 55/2/7 56/3/7 
s 8
f 49/5/3 52/6/3 54/7/3 53/8/3 
s 16
f 52/5/4 51/6/4 55/7/4 54/8/4 
s 32
f 51/5/5 50/6/5 56/7/5 55/8/5 
s 64
f 50/5/6 49/6/6 53/7/6 56/8/6 
s 2
f 57/1/1 58/2/1 59/3/1 60/4/1 
s 4
f 61/4/7 62/1/7 63/2/7 64/3/7 
s 8
f 57/5/3 60/6/3 62/7/3 61/8/3 
s 16
f 60/5/4 59/6/4 63/7/4 62/8/4 
s 32
f 59/5/5 58/6/5 64/7/5 63/8/5 
s 64
f 58/5/6 57/6/6 61/7/6 64/8/6 
s 2
f 65/1/6 66/2/6 67/3/6 68/4/6 
s 4
f 69/4/4 70/1/4 71/2/4 72/3/4 
s 8
f 65/5/3 68/6/3 70/7/3 69/8/3 
s 16
f 68/5/1 67/6/1 71/7/1 70/8/1 
s 32
f 67/5/5 66/6/5 72/7/5 71/8/5 
s 64
f 66/5/2 65/6/2 69/7/2 72/8/2 
s 2
f 73/1/6 74/2/6 75/3/6 76/4/6 
s 4
f 77/4/4 78/1/4 79/2/4 80/3/4 
s 8
f 73/5/3 76/6/3 78/7/3 77/8/3 
s 16
f 76/5/1 75/6/1 79/7/1 78/8/1 
s 32
f 75/5/5 74/6/5 80/7/5 79/8/5 
s 64
f 74/5/2 73/6/2 77/7/2 80/8/2 
s 2
f 81/1/6 82/2/6 83/3/6 84/4/6 
s 4
f 85/4/4 86/1/4 87/2/4 88/3/4 
s 8
f 81/5/3 84/6/3 86/7/3 85/8/3 
s 16
f 84/5/1 83/6/1 87/7/1 86/8/1 
s 32
f 83/5/5 82/6/5 88/7/5 87/8/5 
s 64
f 82/5/2 81/6/2 85/7/2 88/8/2 
s 2
f 89/1/1 90/2/1 91/3/1 92/4/1 
s 4
f 93/4/2 94/1/2 95/2/2 96/3/2 
s 8
f 89/5/3 92/6/3 94/7/3 93/8/3 
s 16
f 92/5/4 91/6/4 95/7/4 94/8/4 
s 32
f 91/5/5 90/6/5 96/7/5 95/8/5 
s 64
f 90/5/6 89/6/6 93/7/6 96/8/6 
s 2
f 97/1/6 98/2/6 99/3/6 100/4/6 
s 4
f 101/4/4 102/1/4 103/2/4 104/3/4 
s 8
f 97/5/3 100/6/3 102/7/3 101/8/3 
s 16
f 100/5/1 99/6/1 103/7/1 102/8/1 
s 32
f 99/5/5 98/6/5 104/7/5 103/8/5 
s 64
f 98/5/2 97/6/2 101/7/2 104/8/2 
s 2
f 105/1/6 106/2/6 107/3/6 108/4/6 
s 4
f 109/4/8 110/1/8 111/2/8 112/3/8 
s 8
f 105/5/3 108/6/3 110/7/3 109/8/3 
s 16
f 108/5/1 107/6/1 111/7/1 110/8/1 
s 32
f 107/5/5 106/6/5 112/7/5 111/8/5 
s 64
f 106/5/2 105/6/2 109/7/2 112/8/2 
s 2
f 113/1/6 114/2/6 115/3/6 116/4/6 
s 4
f 117/4/8 118/1/8 119/2/8 120/3/8 
s 8
f 113/5/3 116/6/3 118/7/3 117/8/3 
s 16
f 116/5/1 115/6/1 119/7/1 118/8/1 
s 32
f 115/5/5 114/6/5 120/7/5 119/8/5 
s 64
f 114/5/2 113/6/2 117/7/2 120/8/2 
s 2
f 121/1/6 122/2/6 123/3/6 124/4/6 
s 4
f 125/4/8 126/1/8 127/2/8 128/3/8 
s 8
f 121/5/3 124/6/3 126/7/3 125/8/3 
s 16
f 124/5/1 123/6/1 127/7/1 126/8/1 
s 32
f 123/5/5 122/6/5 128/7/5 127/8/5 
s 64
f 122/5/2 121/6/2 125/7/2 128/8/2 
# 96 polygons

