# 3ds Max Wavefront OBJ Exporter v0.97b - (c)2007 guruware
# 创建的文件:27.05.2022 14:33:44

mtllib MHS-8F.mtl

#
# object MHS_8F
#

v  -30919.9121 29159.4492 -48028.8086
v  -30919.9121 29959.1016 -48028.8086
v  -30919.9121 29959.1016 -47328.8086
v  -30919.9121 29159.4492 -47328.8086
v  -31072.0254 29159.4492 -48028.8086
v  -31072.0254 29159.4492 -47328.8086
v  -31072.0254 29959.1016 -47328.8086
v  -31072.0254 29959.1016 -48028.8086
v  -30754.9746 29159.4492 -42712.3789
v  -30754.9746 29959.1016 -42712.3789
v  -30754.9746 29959.1016 -42012.3789
v  -30754.9746 29159.4492 -42012.3789
v  -30907.0879 29159.4492 -42712.3789
v  -30907.0879 29159.4492 -42012.3789
v  -30907.6230 29959.1016 -42012.3789
v  -30907.0879 29959.1016 -42712.3789
v  -21931.6621 29159.4492 -56187.6289
v  -21931.6621 29959.1016 -56187.6289
v  -21931.6621 29959.1016 -55487.6289
v  -21931.6621 29159.4492 -55487.6289
v  -22083.7773 29159.4492 -56187.6289
v  -22083.7773 29159.4492 -55487.6289
v  -22083.7773 29959.1016 -55487.6289
v  -22083.7773 29959.1016 -56187.6289
v  -19325.9473 29159.4492 -32715.7891
v  -19325.9473 29959.1016 -32715.7891
v  -19325.9473 29959.1016 -32015.7891
v  -19325.9473 29159.4492 -32015.7891
v  -19478.0625 29159.4492 -32715.7891
v  -19478.0625 29159.4492 -32015.7891
v  -19478.0625 29959.1016 -32015.7891
v  -19478.0625 29959.1016 -32715.7891
v  2676.8833 29159.4492 -32449.9063
v  2676.8833 29959.1016 -32449.9063
v  2676.8833 29959.1016 -31749.9063
v  2676.8833 29159.4492 -31749.9063
v  2524.7688 29159.4492 -32449.9063
v  2524.7688 29159.4492 -31749.9063
v  2524.7688 29959.1016 -31749.9063
v  2524.7688 29959.1016 -32449.9063
v  -14942.4277 29159.4492 -47831.6992
v  -14942.4277 29959.1016 -47831.6992
v  -14242.4277 29959.1016 -47831.6992
v  -14242.4277 29159.4492 -47831.6992
v  -14942.4277 29159.4492 -47679.5859
v  -14242.4277 29159.4492 -47679.5859
v  -14242.4277 29959.1016 -47679.5859
v  -14942.4277 29959.1016 -47679.5859
v  757.5708 29159.4492 -47889.9648
v  757.5708 29959.1016 -47889.9648
v  1457.5708 29959.1016 -47889.9648
v  1457.5708 29159.4492 -47889.9648
v  757.5708 29159.4492 -47737.8516
v  1457.5708 29159.4492 -47737.8516
v  1457.5708 29959.1016 -47737.8516
v  757.5708 29959.1016 -47737.8516
v  18057.5703 29159.4492 -47870.5664
v  18057.5703 29959.1016 -47870.5664
v  18757.5703 29959.1016 -47870.5664
v  18757.5703 29159.4492 -47870.5664
v  18057.5703 29159.4492 -47718.4531
v  18757.5703 29159.4492 -47718.4531
v  18757.5703 29959.1016 -47718.4531
v  18057.5703 29959.1016 -47718.4531
# 64 vertices

vn 1.0000 0.0000 -0.0000
vn -1.0000 0.0000 -0.0000
vn 0.0000 -1.0000 -0.0000
vn 0.0000 0.0000 1.0000
vn 0.0000 1.0000 -0.0000
vn 0.0000 0.0000 -1.0000
vn -1.0000 -0.0004 -0.0003
vn -1.0000 -0.0007 -0.0000
vn -1.0000 -0.0003 -0.0004
vn -1.0000 0.0000 -0.0008
# 10 vertex normals

vt 1.0000 0.0000 0.0000
vt 1.0000 1.0000 0.0000
vt 0.0000 1.0000 0.0000
vt 0.0000 0.0000 0.0000
vt 0.0984 0.0973 0.0000
vt 0.1041 0.9047 0.0000
vt 0.0107 0.9052 0.0000
vt 0.0111 0.0978 0.0000
# 8 texture coords

g MHS_8F
usemtl xiaofangshuan_t
s 2
f 1/1/1 2/2/1 3/3/1 4/4/1 
s 4
f 5/4/2 6/1/2 7/2/2 8/3/2 
s 8
f 1/5/3 4/6/3 6/7/3 5/8/3 
s 16
f 4/5/4 3/6/4 7/7/4 6/8/4 
s 32
f 3/5/5 2/6/5 8/7/5 7/8/5 
s 64
f 2/5/6 1/6/6 5/7/6 8/8/6 
s 2
f 9/1/1 10/2/1 11/3/1 12/4/1 
s 4
f 13/4/7 14/1/8 15/2/9 16/3/10 
s 8
f 9/5/3 12/6/3 14/7/3 13/8/3 
s 16
f 12/5/4 11/6/4 15/7/4 14/8/4 
s 32
f 11/5/5 10/6/5 16/7/5 15/8/5 
s 64
f 10/5/6 9/6/6 13/7/6 16/8/6 
s 2
f 17/1/1 18/2/1 19/3/1 20/4/1 
s 4
f 21/4/2 22/1/2 23/2/2 24/3/2 
s 8
f 17/5/3 20/6/3 22/7/3 21/8/3 
s 16
f 20/5/4 19/6/4 23/7/4 22/8/4 
s 32
f 19/5/5 18/6/5 24/7/5 23/8/5 
s 64
f 18/5/6 17/6/6 21/7/6 24/8/6 
s 2
f 25/1/1 26/2/1 27/3/1 28/4/1 
s 4
f 29/4/2 30/1/2 31/2/2 32/3/2 
s 8
f 25/5/3 28/6/3 30/7/3 29/8/3 
s 16
f 28/5/4 27/6/4 31/7/4 30/8/4 
s 32
f 27/5/5 26/6/5 32/7/5 31/8/5 
s 64
f 26/5/6 25/6/6 29/7/6 32/8/6 
s 2
f 33/1/1 34/2/1 35/3/1 36/4/1 
s 4
f 37/4/2 38/1/2 39/2/2 40/3/2 
s 8
f 33/5/3 36/6/3 38/7/3 37/8/3 
s 16
f 36/5/4 35/6/4 39/7/4 38/8/4 
s 32
f 35/5/5 34/6/5 40/7/5 39/8/5 
s 64
f 34/5/6 33/6/6 37/7/6 40/8/6 
s 2
f 41/1/6 42/2/6 43/3/6 44/4/6 
s 4
f 45/4/4 46/1/4 47/2/4 48/3/4 
s 8
f 41/5/3 44/6/3 46/7/3 45/8/3 
s 16
f 44/5/1 43/6/1 47/7/1 46/8/1 
s 32
f 43/5/5 42/6/5 48/7/5 47/8/5 
s 64
f 42/5/2 41/6/2 45/7/2 48/8/2 
s 2
f 49/1/6 50/2/6 51/3/6 52/4/6 
s 4
f 53/4/4 54/1/4 55/2/4 56/3/4 
s 8
f 49/5/3 52/6/3 54/7/3 53/8/3 
s 16
f 52/5/1 51/6/1 55/7/1 54/8/1 
s 32
f 51/5/5 50/6/5 56/7/5 55/8/5 
s 64
f 50/5/2 49/6/2 53/7/2 56/8/2 
s 2
f 57/1/6 58/2/6 59/3/6 60/4/6 
s 4
f 61/4/4 62/1/4 63/2/4 64/3/4 
s 8
f 57/5/3 60/6/3 62/7/3 61/8/3 
s 16
f 60/5/1 59/6/1 63/7/1 62/8/1 
s 32
f 59/5/5 58/6/5 64/7/5 63/8/5 
s 64
f 58/5/2 57/6/2 61/7/2 64/8/2 
# 48 polygons

