# 3ds Max Wavefront OBJ Exporter v0.97b - (c)2007 guruware
# 创建的文件:07.05.2022 16:10:27

mtllib MHS-F1F.mtl

#
# object MHS_F1F
#

v  -5116.5518 -4725.4258 17771.8887
v  -5116.5518 -3925.7734 17771.8887
v  -4416.5513 -3925.7734 17771.8887
v  -4416.5513 -4725.4258 17771.8887
v  -5116.5518 -4725.4258 17924.0020
v  -4416.5513 -4725.4258 17924.0020
v  -4416.5513 -3925.7734 17924.0020
v  -5116.5518 -3925.7734 17924.0020
v  -37663.4453 -4725.4258 -55465.0313
v  -37663.4453 -3925.7734 -55465.0313
v  -37663.4453 -3925.7734 -56165.0313
v  -37663.4453 -4725.4258 -56165.0313
v  -37511.3281 -4725.4258 -55465.0313
v  -37511.3359 -4725.4258 -56165.0313
v  -37511.3359 -3925.7734 -56165.0313
v  -37511.3281 -3925.7734 -55465.0313
v  -21976.3750 -4725.4258 -62400.0938
v  -21976.3750 -3925.7734 -62400.0938
v  -21276.3750 -3925.7734 -62400.0938
v  -21276.3750 -4725.4258 -62400.0938
v  -21976.3750 -4725.4258 -62247.9766
v  -21276.3750 -4725.4258 -62247.9844
v  -21276.3750 -3925.7734 -62247.9844
v  -21976.3750 -3925.7734 -62247.9766
v  -43996.2148 -4725.4258 -40369.0938
v  -43996.2148 -3925.7734 -40369.0938
v  -43996.2148 -3925.7734 -41069.0938
v  -43996.2148 -4725.4258 -41069.0938
v  -43844.1016 -4725.4258 -40369.0938
v  -43844.1016 -4725.4258 -41069.0938
v  -43844.1016 -3925.7734 -41069.0938
v  -43844.1016 -3925.7734 -40369.0938
v  -43996.2344 -4725.4258 -22709.0762
v  -43996.2344 -3925.7734 -22709.0762
v  -43996.2344 -3925.7734 -23409.0762
v  -43996.2344 -4725.4258 -23409.0762
v  -43844.1211 -4725.4258 -22709.0762
v  -43844.1211 -4725.4258 -23409.0762
v  -43844.1211 -3925.7734 -23409.0762
v  -43844.1211 -3925.7734 -22709.0762
v  -38563.4219 -4725.4258 -9442.4336
v  -38563.4219 -3925.7734 -9442.4336
v  -38563.4219 -3925.7734 -10142.4336
v  -38563.4219 -4725.4258 -10142.4336
v  -38411.3086 -4725.4258 -9442.4336
v  -38411.3086 -4725.4258 -10142.4336
v  -38411.3086 -3925.7734 -10142.4336
v  -38411.3086 -3925.7734 -9442.4336
v  -38563.4180 -4725.4258 3957.5625
v  -38563.4180 -3925.7734 3957.5625
v  -38563.4219 -3925.7734 3257.5625
v  -38563.4219 -4725.4258 3257.5625
v  -38411.3047 -4725.4258 3957.5625
v  -38411.3086 -4725.4258 3257.5625
v  -38411.3086 -3925.7734 3257.5625
v  -38411.3047 -3925.7734 3957.5625
v  -21916.5508 -4725.4258 17771.8887
v  -21916.5508 -3925.7734 17771.8887
v  -21216.5508 -3925.7734 17771.8906
v  -21216.5508 -4725.4258 17771.8906
v  -21916.5508 -4725.4258 17924.0020
v  -21216.5508 -4725.4258 17924.0039
v  -21216.5508 -3925.7734 17924.0039
v  -21916.5508 -3925.7734 17924.0020
v  11386.3916 -4725.4258 12200.1455
v  11386.3916 -3925.7734 12200.1455
v  11386.3916 -3925.7734 11500.1445
v  11386.3916 -4725.4258 11500.1445
v  11538.5049 -4725.4258 12200.1455
v  11538.5049 -4725.4258 11500.1445
v  11538.5049 -3925.7734 11500.1445
v  11538.5049 -3925.7734 12200.1455
v  18946.5703 -4725.4258 12323.6055
v  18946.5703 -3925.7734 12323.6055
v  18946.5703 -3925.7734 11623.6055
v  18946.5703 -4725.4258 11623.6055
v  19098.6836 -4725.4258 12323.6064
v  19098.6836 -4725.4258 11623.6064
v  19098.6836 -3925.7734 11623.6064
v  19098.6836 -3925.7734 12323.6064
v  18946.5781 -4725.4258 -4476.3926
v  18946.5781 -3925.7734 -4476.3926
v  18946.5781 -3925.7734 -5176.3926
v  18946.5781 -4725.4258 -5176.3926
v  19098.6914 -4725.4258 -4476.3926
v  19098.6914 -4725.4258 -5176.3926
v  19098.6914 -3925.7734 -5176.3926
v  19098.6914 -3925.7734 -4476.3926
v  -22403.6055 -4725.4258 -6643.4688
v  -22403.6055 -3925.7734 -6643.4688
v  -22403.6055 -3925.7734 -7343.4688
v  -22403.6055 -4725.4258 -7343.4688
v  -22251.4922 -4725.4258 -6643.4688
v  -22251.4922 -4725.4258 -7343.4688
v  -22251.4922 -3925.7734 -7343.4688
v  -22251.4922 -3925.7734 -6643.4688
v  -22703.5977 -4725.4258 -16368.0605
v  -22703.5977 -3925.7734 -16368.0605
v  -22703.5977 -3925.7734 -17068.0605
v  -22703.5977 -4725.4258 -17068.0605
v  -22551.4844 -4725.4258 -16368.0605
v  -22551.4844 -4725.4258 -17068.0605
v  -22551.4844 -3925.7734 -17068.0605
v  -22551.4844 -3925.7734 -16368.0605
v  2876.3931 -4725.4258 -16057.8613
v  2876.3931 -3925.7734 -16057.8613
v  2876.3931 -3925.7734 -16757.8613
v  2876.3931 -4725.4258 -16757.8613
v  3028.5063 -4725.4258 -16057.8613
v  3028.5063 -4725.4258 -16757.8613
v  3028.5063 -3925.7734 -16757.8613
v  3028.5063 -3925.7734 -16057.8613
v  10297.4473 -4725.4258 -5474.1055
v  10297.4473 -3925.7734 -5474.1055
v  10997.4482 -3925.7734 -5474.1055
v  10997.4482 -4725.4258 -5474.1055
v  10297.4473 -4725.4258 -5321.9922
v  10997.4482 -4725.4258 -5321.9922
v  10997.4482 -3925.7734 -5321.9922
v  10297.4473 -3925.7734 -5321.9922
v  25396.7461 -4725.4258 -32095.1543
v  25396.7461 -3925.7734 -32095.1543
v  25396.7500 -3925.7734 -32795.1563
v  25396.7500 -4725.4258 -32795.1563
v  25548.8594 -4725.4258 -32095.1543
v  25548.8633 -4725.4258 -32795.1563
v  25548.8633 -3925.7734 -32795.1563
v  25548.8594 -3925.7734 -32095.1543
v  11761.6260 -4725.4258 -36450.1016
v  11761.6260 -3925.7734 -36450.1016
v  12461.6260 -3925.7734 -36450.1016
v  12461.6260 -4725.4258 -36450.1016
v  11761.6260 -4725.4258 -36297.9844
v  12461.6260 -4725.4258 -36297.9844
v  12461.6260 -3925.7734 -36297.9844
v  11761.6260 -3925.7734 -36297.9844
v  1207.5674 -4725.4258 -40166.7656
v  1207.5674 -3925.7734 -40166.7656
v  1207.5674 -3925.7734 -40866.7656
v  1207.5674 -4725.4258 -40866.7656
v  1359.6807 -4725.4258 -40166.7656
v  1359.6807 -4725.4258 -40866.7656
v  1359.6807 -3925.7734 -40866.7656
v  1359.6807 -3925.7734 -40166.7656
v  -30406.1016 -4725.4258 -40982.1094
v  -30406.1016 -3925.7734 -40982.1094
v  -29706.1016 -3925.7734 -40982.1094
v  -29706.1016 -4725.4258 -40982.1094
v  -30406.1016 -4725.4258 -40829.9922
v  -29706.1016 -4725.4258 -40829.9922
v  -29706.1016 -3925.7734 -40829.9922
v  -30406.1016 -3925.7734 -40829.9922
# 152 vertices

vn 0.0000 0.0000 -1.0000
vn -0.0000 0.0000 1.0000
vn 0.0000 -1.0000 -0.0000
vn 1.0000 0.0000 0.0000
vn 0.0000 1.0000 -0.0000
vn -1.0000 0.0000 -0.0000
vn 1.0000 0.0000 -0.0000
vn 0.0000 0.0000 1.0000
vn -1.0000 0.0000 0.0000
# 9 vertex normals

vt 1.0000 0.0000 0.0000
vt 1.0000 1.0000 0.0000
vt 0.0000 1.0000 0.0000
vt 0.0000 0.0000 0.0000
vt 0.0984 0.0973 0.0000
vt 0.1041 0.9047 0.0000
vt 0.0107 0.9052 0.0000
vt 0.0111 0.0978 0.0000
# 8 texture coords

g MHS_F1F
usemtl xiaofangshuan_t
s 2
f 1/1/1 2/2/1 3/3/1 4/4/1 
s 4
f 5/4/2 6/1/2 7/2/2 8/3/2 
s 8
f 1/5/3 4/6/3 6/7/3 5/8/3 
s 16
f 4/5/4 3/6/4 7/7/4 6/8/4 
s 32
f 3/5/5 2/6/5 8/7/5 7/8/5 
s 64
f 2/5/6 1/6/6 5/7/6 8/8/6 
s 2
f 9/1/6 10/2/6 11/3/6 12/4/6 
s 4
f 13/4/7 14/1/7 15/2/7 16/3/7 
s 8
f 9/5/3 12/6/3 14/7/3 13/8/3 
s 16
f 12/5/1 11/6/1 15/7/1 14/8/1 
s 32
f 11/5/5 10/6/5 16/7/5 15/8/5 
s 64
f 10/5/2 9/6/2 13/7/2 16/8/2 
s 2
f 17/1/1 18/2/1 19/3/1 20/4/1 
s 4
f 21/4/8 22/1/8 23/2/8 24/3/8 
s 8
f 17/5/3 20/6/3 22/7/3 21/8/3 
s 16
f 20/5/4 19/6/4 23/7/4 22/8/4 
s 32
f 19/5/5 18/6/5 24/7/5 23/8/5 
s 64
f 18/5/6 17/6/6 21/7/6 24/8/6 
s 2
f 25/1/6 26/2/6 27/3/6 28/4/6 
s 4
f 29/4/4 30/1/4 31/2/4 32/3/4 
s 8
f 25/5/3 28/6/3 30/7/3 29/8/3 
s 16
f 28/5/1 27/6/1 31/7/1 30/8/1 
s 32
f 27/5/5 26/6/5 32/7/5 31/8/5 
s 64
f 26/5/2 25/6/2 29/7/2 32/8/2 
s 2
f 33/1/6 34/2/6 35/3/6 36/4/6 
s 4
f 37/4/4 38/1/4 39/2/4 40/3/4 
s 8
f 33/5/3 36/6/3 38/7/3 37/8/3 
s 16
f 36/5/1 35/6/1 39/7/1 38/8/1 
s 32
f 35/5/5 34/6/5 40/7/5 39/8/5 
s 64
f 34/5/2 33/6/2 37/7/2 40/8/2 
s 2
f 41/1/6 42/2/6 43/3/6 44/4/6 
s 4
f 45/4/4 46/1/4 47/2/4 48/3/4 
s 8
f 41/5/3 44/6/3 46/7/3 45/8/3 
s 16
f 44/5/1 43/6/1 47/7/1 46/8/1 
s 32
f 43/5/5 42/6/5 48/7/5 47/8/5 
s 64
f 42/5/2 41/6/2 45/7/2 48/8/2 
s 2
f 49/1/9 50/2/9 51/3/9 52/4/9 
s 4
f 53/4/7 54/1/7 55/2/7 56/3/7 
s 8
f 49/5/3 52/6/3 54/7/3 53/8/3 
s 16
f 52/5/1 51/6/1 55/7/1 54/8/1 
s 32
f 51/5/5 50/6/5 56/7/5 55/8/5 
s 64
f 50/5/2 49/6/2 53/7/2 56/8/2 
s 2
f 57/1/1 58/2/1 59/3/1 60/4/1 
s 4
f 61/4/2 62/1/2 63/2/2 64/3/2 
s 8
f 57/5/3 60/6/3 62/7/3 61/8/3 
s 16
f 60/5/4 59/6/4 63/7/4 62/8/4 
s 32
f 59/5/5 58/6/5 64/7/5 63/8/5 
s 64
f 58/5/6 57/6/6 61/7/6 64/8/6 
s 2
f 65/1/6 66/2/6 67/3/6 68/4/6 
s 4
f 69/4/4 70/1/4 71/2/4 72/3/4 
s 8
f 65/5/3 68/6/3 70/7/3 69/8/3 
s 16
f 68/5/1 67/6/1 71/7/1 70/8/1 
s 32
f 67/5/5 66/6/5 72/7/5 71/8/5 
s 64
f 66/5/2 65/6/2 69/7/2 72/8/2 
s 2
f 73/1/6 74/2/6 75/3/6 76/4/6 
s 4
f 77/4/4 78/1/4 79/2/4 80/3/4 
s 8
f 73/5/3 76/6/3 78/7/3 77/8/3 
s 16
f 76/5/1 75/6/1 79/7/1 78/8/1 
s 32
f 75/5/5 74/6/5 80/7/5 79/8/5 
s 64
f 74/5/2 73/6/2 77/7/2 80/8/2 
s 2
f 81/1/6 82/2/6 83/3/6 84/4/6 
s 4
f 85/4/4 86/1/4 87/2/4 88/3/4 
s 8
f 81/5/3 84/6/3 86/7/3 85/8/3 
s 16
f 84/5/1 83/6/1 87/7/1 86/8/1 
s 32
f 83/5/5 82/6/5 88/7/5 87/8/5 
s 64
f 82/5/2 81/6/2 85/7/2 88/8/2 
s 2
f 89/1/6 90/2/6 91/3/6 92/4/6 
s 4
f 93/4/4 94/1/4 95/2/4 96/3/4 
s 8
f 89/5/3 92/6/3 94/7/3 93/8/3 
s 16
f 92/5/1 91/6/1 95/7/1 94/8/1 
s 32
f 91/5/5 90/6/5 96/7/5 95/8/5 
s 64
f 90/5/2 89/6/2 93/7/2 96/8/2 
s 2
f 97/1/6 98/2/6 99/3/6 100/4/6 
s 4
f 101/4/4 102/1/4 103/2/4 104/3/4 
s 8
f 97/5/3 100/6/3 102/7/3 101/8/3 
s 16
f 100/5/1 99/6/1 103/7/1 102/8/1 
s 32
f 99/5/5 98/6/5 104/7/5 103/8/5 
s 64
f 98/5/2 97/6/2 101/7/2 104/8/2 
s 2
f 105/1/6 106/2/6 107/3/6 108/4/6 
s 4
f 109/4/4 110/1/4 111/2/4 112/3/4 
s 8
f 105/5/3 108/6/3 110/7/3 109/8/3 
s 16
f 108/5/1 107/6/1 111/7/1 110/8/1 
s 32
f 107/5/5 106/6/5 112/7/5 111/8/5 
s 64
f 106/5/2 105/6/2 109/7/2 112/8/2 
s 2
f 113/1/1 114/2/1 115/3/1 116/4/1 
s 4
f 117/4/2 118/1/2 119/2/2 120/3/2 
s 8
f 113/5/3 116/6/3 118/7/3 117/8/3 
s 16
f 116/5/4 115/6/4 119/7/4 118/8/4 
s 32
f 115/5/5 114/6/5 120/7/5 119/8/5 
s 64
f 114/5/6 113/6/6 117/7/6 120/8/6 
s 2
f 121/1/6 122/2/6 123/3/6 124/4/6 
s 4
f 125/4/4 126/1/4 127/2/4 128/3/4 
s 8
f 121/5/3 124/6/3 126/7/3 125/8/3 
s 16
f 124/5/1 123/6/1 127/7/1 126/8/1 
s 32
f 123/5/5 122/6/5 128/7/5 127/8/5 
s 64
f 122/5/2 121/6/2 125/7/2 128/8/2 
s 2
f 129/1/1 130/2/1 131/3/1 132/4/1 
s 4
f 133/4/2 134/1/2 135/2/2 136/3/2 
s 8
f 129/5/3 132/6/3 134/7/3 133/8/3 
s 16
f 132/5/4 131/6/4 135/7/4 134/8/4 
s 32
f 131/5/5 130/6/5 136/7/5 135/8/5 
s 64
f 130/5/6 129/6/6 133/7/6 136/8/6 
s 2
f 137/1/6 138/2/6 139/3/6 140/4/6 
s 4
f 141/4/4 142/1/4 143/2/4 144/3/4 
s 8
f 137/5/3 140/6/3 142/7/3 141/8/3 
s 16
f 140/5/1 139/6/1 143/7/1 142/8/1 
s 32
f 139/5/5 138/6/5 144/7/5 143/8/5 
s 64
f 138/5/2 137/6/2 141/7/2 144/8/2 
s 2
f 145/1/1 146/2/1 147/3/1 148/4/1 
s 4
f 149/4/2 150/1/2 151/2/2 152/3/2 
s 8
f 145/5/3 148/6/3 150/7/3 149/8/3 
s 16
f 148/5/4 147/6/4 151/7/4 150/8/4 
s 32
f 147/5/5 146/6/5 152/7/5 151/8/5 
s 64
f 146/5/6 145/6/6 149/7/6 152/8/6 
# 114 polygons

