# 3ds Max Wavefront OBJ Exporter v0.97b - (c)2007 guruware
# 创建的文件:17.05.2022 11:10:15

mtllib MHS-3F.mtl

#
# object MHS_3F
#

v  3209.3145 9464.2529 -8748.3750
v  3209.3145 10263.9053 -8748.3750
v  3909.3145 10263.9053 -8748.3750
v  3909.3145 9464.2529 -8748.3750
v  3209.3145 9464.2529 -8596.2607
v  3909.3145 9464.2529 -8596.2607
v  3909.3145 10263.9053 -8596.2607
v  3209.3145 10263.9053 -8596.2607
v  -30696.1191 9464.2529 -47509.4609
v  -30696.1191 10263.9053 -47509.4609
v  -30696.1191 10263.9053 -46809.4609
v  -30696.1191 9464.2529 -46809.4609
v  -30848.2324 9464.2529 -47509.4609
v  -30848.2324 9464.2529 -46809.4609
v  -30848.2324 10263.9053 -46809.4609
v  -30848.2324 10263.9053 -47509.4609
v  -30828.8340 9464.2529 -42712.3789
v  -30828.8340 10263.9053 -42712.3789
v  -30828.8340 10263.9053 -42012.3789
v  -30828.8340 9464.2529 -42012.3789
v  -30980.9473 9464.2529 -42712.3789
v  -30980.9473 9464.2529 -42012.3789
v  -30980.9473 10263.9053 -42012.3789
v  -30980.9473 10263.9053 -42712.3789
v  -21910.9395 9464.2529 -56158.9219
v  -21910.9395 10263.9053 -56158.9219
v  -21910.9395 10263.9053 -55458.9219
v  -21910.9395 9464.2529 -55458.9219
v  -22063.0547 9464.2529 -56158.9219
v  -22063.0547 9464.2529 -55458.9219
v  -22063.0547 10263.9053 -55458.9219
v  -22063.0547 10263.9053 -56158.9219
v  -21774.5605 9464.2529 -32535.5664
v  -21774.5605 10263.9053 -32535.5664
v  -21774.5605 10263.9053 -31835.5664
v  -21774.5605 9464.2529 -31835.5664
v  -21926.6758 9464.2529 -32535.5664
v  -21926.6758 9464.2529 -31835.5664
v  -21926.6758 10263.9053 -31835.5664
v  -21926.6758 10263.9053 -32535.5664
v  -22023.5293 9464.2529 -30190.6523
v  -22023.5293 10263.9053 -30190.6523
v  -22023.5293 10263.9053 -29490.6523
v  -22023.5293 9464.2529 -29490.6523
v  -22175.6445 9464.2529 -30190.6523
v  -22175.6445 9464.2529 -29490.6523
v  -22175.6445 10263.9053 -29490.6523
v  -22175.6445 10263.9053 -30190.6523
v  2935.8975 9464.2529 -18293.3047
v  2935.8975 10263.9053 -18293.3047
v  2935.8975 10263.9053 -17593.3047
v  2935.8975 9464.2529 -17593.3047
v  2783.7830 9464.2529 -18293.3047
v  2783.7830 9464.2529 -17593.3047
v  2783.7830 10263.9053 -17593.3047
v  2783.7830 10263.9053 -18293.3047
v  2883.6797 9464.2529 -30256.7852
v  2883.6797 10263.9053 -30256.7852
v  2883.6797 10263.9053 -29556.7852
v  2883.6797 9464.2529 -29556.7852
v  2731.5652 9464.2529 -30256.7852
v  2731.5652 9464.2529 -29556.7852
v  2731.5652 10263.9053 -29556.7852
v  2731.5652 10263.9053 -30256.7852
v  2738.6816 9464.2529 -32416.7852
v  2738.6816 10263.9053 -32416.7852
v  2738.6816 10263.9053 -31716.7852
v  2738.6816 9464.2529 -31716.7852
v  2586.5671 9464.2529 -32416.7852
v  2586.5671 9464.2529 -31716.7852
v  2586.5671 10263.9053 -31716.7852
v  2586.5671 10263.9053 -32416.7852
v  -14942.4277 9464.2529 -47853.0977
v  -14942.4277 10263.9053 -47853.0977
v  -14242.4277 10263.9053 -47853.0977
v  -14242.4277 9464.2529 -47853.0977
v  -14942.4277 9464.2529 -47700.9844
v  -14242.4277 9464.2529 -47700.9844
v  -14242.4277 10263.9053 -47700.9844
v  -14942.4277 10263.9053 -47700.9844
v  757.5708 9464.2529 -47814.9453
v  757.5708 10263.9053 -47814.9453
v  1457.5708 10263.9053 -47814.9453
v  1457.5708 9464.2529 -47814.9453
v  757.5708 9464.2529 -47662.8320
v  1457.5708 9464.2529 -47662.8320
v  1457.5708 10263.9053 -47662.8320
v  757.5708 10263.9053 -47662.8320
v  18057.5703 9464.2529 -47832.2969
v  18057.5703 10263.9053 -47832.2969
v  18757.5703 10263.9053 -47832.2969
v  18757.5703 9464.2529 -47832.2969
v  18057.5703 9464.2529 -47680.1836
v  18757.5703 9464.2529 -47680.1836
v  18757.5703 10263.9053 -47680.1836
v  18057.5703 10263.9053 -47680.1836
v  -22092.6680 9464.2529 -13221.2979
v  -22092.6680 10263.9053 -13221.2979
v  -22092.6680 10263.9053 -12521.2979
v  -22092.6680 9464.2529 -12521.2979
v  -22244.7832 9464.2529 -13221.2979
v  -22244.7832 9464.2529 -12521.2979
v  -22244.7832 10263.9053 -12521.2979
v  -22244.7832 10263.9053 -13221.2979
v  -22807.6445 9464.2529 -8740.9854
v  -22807.6445 10263.9053 -8740.9854
v  -22107.6445 10263.9053 -8740.9854
v  -22107.6445 9464.2529 -8740.9854
v  -22807.6445 9464.2529 -8588.8711
v  -22107.6445 9464.2529 -8588.8711
v  -22107.6445 10263.9053 -8588.8711
v  -22807.6445 10263.9053 -8588.8711
v  3209.3145 9464.2529 -15006.0811
v  3209.3145 10263.9053 -15006.0811
v  3909.3145 10263.9053 -15006.0811
v  3909.3145 9464.2529 -15006.0811
v  3209.3145 9464.2529 -14853.9668
v  3909.3145 9464.2529 -14853.9668
v  3909.3145 10263.9053 -14853.9668
v  3209.3145 10263.9053 -14853.9668
v  -4852.8730 9464.2529 4541.3115
v  -4852.8730 10263.9053 4541.3115
v  -4152.8735 10263.9053 4541.3115
v  -4152.8735 9464.2529 4541.3115
v  -4852.8740 9464.2529 4693.4258
v  -4152.8735 9464.2529 4693.4258
v  -4152.8735 10263.9053 4693.4258
v  -4852.8740 10263.9053 4693.4258
# 128 vertices

vn 0.0000 0.0000 -1.0000
vn 0.0000 -0.0000 1.0000
vn 0.0000 -1.0000 -0.0000
vn 1.0000 0.0000 -0.0000
vn 0.0000 1.0000 0.0000
vn -1.0000 0.0000 -0.0000
vn 0.0000 0.0000 1.0000
vn -0.0000 1.0000 -0.0000
vn -1.0000 -0.0000 -0.0000
# 9 vertex normals

vt 1.0000 0.0000 0.0000
vt 1.0000 1.0000 0.0000
vt 0.0000 1.0000 0.0000
vt 0.0000 0.0000 0.0000
vt 0.0984 0.0973 0.0000
vt 0.1041 0.9047 0.0000
vt 0.0107 0.9052 0.0000
vt 0.0111 0.0978 0.0000
# 8 texture coords

g MHS_3F
usemtl xiaofangshuan_t
s 2
f 1/1/1 2/2/1 3/3/1 4/4/1 
s 4
f 5/4/2 6/1/2 7/2/2 8/3/2 
s 8
f 1/5/3 4/6/3 6/7/3 5/8/3 
s 16
f 4/5/4 3/6/4 7/7/4 6/8/4 
s 32
f 3/5/5 2/6/5 8/7/5 7/8/5 
s 64
f 2/5/6 1/6/6 5/7/6 8/8/6 
s 2
f 9/1/4 10/2/4 11/3/4 12/4/4 
s 4
f 13/4/6 14/1/6 15/2/6 16/3/6 
s 8
f 9/5/3 12/6/3 14/7/3 13/8/3 
s 16
f 12/5/7 11/6/7 15/7/7 14/8/7 
s 32
f 11/5/8 10/6/8 16/7/8 15/8/8 
s 64
f 10/5/1 9/6/1 13/7/1 16/8/1 
s 2
f 17/1/4 18/2/4 19/3/4 20/4/4 
s 4
f 21/4/6 22/1/6 23/2/6 24/3/6 
s 8
f 17/5/3 20/6/3 22/7/3 21/8/3 
s 16
f 20/5/7 19/6/7 23/7/7 22/8/7 
s 32
f 19/5/8 18/6/8 24/7/8 23/8/8 
s 64
f 18/5/1 17/6/1 21/7/1 24/8/1 
s 2
f 25/1/4 26/2/4 27/3/4 28/4/4 
s 4
f 29/4/6 30/1/6 31/2/6 32/3/6 
s 8
f 25/5/3 28/6/3 30/7/3 29/8/3 
s 16
f 28/5/7 27/6/7 31/7/7 30/8/7 
s 32
f 27/5/8 26/6/8 32/7/8 31/8/8 
s 64
f 26/5/1 25/6/1 29/7/1 32/8/1 
s 2
f 33/1/4 34/2/4 35/3/4 36/4/4 
s 4
f 37/4/6 38/1/6 39/2/6 40/3/6 
s 8
f 33/5/3 36/6/3 38/7/3 37/8/3 
s 16
f 36/5/7 35/6/7 39/7/7 38/8/7 
s 32
f 35/5/8 34/6/8 40/7/8 39/8/8 
s 64
f 34/5/1 33/6/1 37/7/1 40/8/1 
s 2
f 41/1/4 42/2/4 43/3/4 44/4/4 
s 4
f 45/4/6 46/1/6 47/2/6 48/3/6 
s 8
f 41/5/3 44/6/3 46/7/3 45/8/3 
s 16
f 44/5/7 43/6/7 47/7/7 46/8/7 
s 32
f 43/5/8 42/6/8 48/7/8 47/8/8 
s 64
f 42/5/1 41/6/1 45/7/1 48/8/1 
s 2
f 49/1/4 50/2/4 51/3/4 52/4/4 
s 4
f 53/4/9 54/1/9 55/2/9 56/3/9 
s 8
f 49/5/3 52/6/3 54/7/3 53/8/3 
s 16
f 52/5/7 51/6/7 55/7/7 54/8/7 
s 32
f 51/5/8 50/6/8 56/7/8 55/8/8 
s 64
f 50/5/1 49/6/1 53/7/1 56/8/1 
s 2
f 57/1/4 58/2/4 59/3/4 60/4/4 
s 4
f 61/4/9 62/1/9 63/2/9 64/3/9 
s 8
f 57/5/3 60/6/3 62/7/3 61/8/3 
s 16
f 60/5/7 59/6/7 63/7/7 62/8/7 
s 32
f 59/5/8 58/6/8 64/7/8 63/8/8 
s 64
f 58/5/1 57/6/1 61/7/1 64/8/1 
s 2
f 65/1/4 66/2/4 67/3/4 68/4/4 
s 4
f 69/4/9 70/1/9 71/2/9 72/3/9 
s 8
f 65/5/3 68/6/3 70/7/3 69/8/3 
s 16
f 68/5/7 67/6/7 71/7/7 70/8/7 
s 32
f 67/5/8 66/6/8 72/7/8 71/8/8 
s 64
f 66/5/1 65/6/1 69/7/1 72/8/1 
s 2
f 73/1/1 74/2/1 75/3/1 76/4/1 
s 4
f 77/4/7 78/1/7 79/2/7 80/3/7 
s 8
f 73/5/3 76/6/3 78/7/3 77/8/3 
s 16
f 76/5/4 75/6/4 79/7/4 78/8/4 
s 32
f 75/5/5 74/6/5 80/7/5 79/8/5 
s 64
f 74/5/6 73/6/6 77/7/6 80/8/6 
s 2
f 81/1/1 82/2/1 83/3/1 84/4/1 
s 4
f 85/4/7 86/1/7 87/2/7 88/3/7 
s 8
f 81/5/3 84/6/3 86/7/3 85/8/3 
s 16
f 84/5/4 83/6/4 87/7/4 86/8/4 
s 32
f 83/5/5 82/6/5 88/7/5 87/8/5 
s 64
f 82/5/6 81/6/6 85/7/6 88/8/6 
s 2
f 89/1/1 90/2/1 91/3/1 92/4/1 
s 4
f 93/4/7 94/1/7 95/2/7 96/3/7 
s 8
f 89/5/3 92/6/3 94/7/3 93/8/3 
s 16
f 92/5/4 91/6/4 95/7/4 94/8/4 
s 32
f 91/5/5 90/6/5 96/7/5 95/8/5 
s 64
f 90/5/6 89/6/6 93/7/6 96/8/6 
s 2
f 97/1/4 98/2/4 99/3/4 100/4/4 
s 4
f 101/4/6 102/1/6 103/2/6 104/3/6 
s 8
f 97/5/3 100/6/3 102/7/3 101/8/3 
s 16
f 100/5/7 99/6/7 103/7/7 102/8/7 
s 32
f 99/5/8 98/6/8 104/7/8 103/8/8 
s 64
f 98/5/1 97/6/1 101/7/1 104/8/1 
s 2
f 105/1/1 106/2/1 107/3/1 108/4/1 
s 4
f 109/4/2 110/1/2 111/2/2 112/3/2 
s 8
f 105/5/3 108/6/3 110/7/3 109/8/3 
s 16
f 108/5/4 107/6/4 111/7/4 110/8/4 
s 32
f 107/5/5 106/6/5 112/7/5 111/8/5 
s 64
f 106/5/6 105/6/6 109/7/6 112/8/6 
s 2
f 113/1/1 114/2/1 115/3/1 116/4/1 
s 4
f 117/4/2 118/1/2 119/2/2 120/3/2 
s 8
f 113/5/3 116/6/3 118/7/3 117/8/3 
s 16
f 116/5/4 115/6/4 119/7/4 118/8/4 
s 32
f 115/5/5 114/6/5 120/7/5 119/8/5 
s 64
f 114/5/6 113/6/6 117/7/6 120/8/6 
s 2
f 121/1/1 122/2/1 123/3/1 124/4/1 
s 4
f 125/4/7 126/1/7 127/2/7 128/3/7 
s 8
f 121/5/3 124/6/3 126/7/3 125/8/3 
s 16
f 124/5/4 123/6/4 127/7/4 126/8/4 
s 32
f 123/5/5 122/6/5 128/7/5 127/8/5 
s 64
f 122/5/6 121/6/6 125/7/6 128/8/6 
# 96 polygons

